<?xml version="1.0" encoding="UTF-8" standalone="no"?>
<svg
   xmlns:dc="http://purl.org/dc/elements/1.1/"
   xmlns:cc="http://creativecommons.org/ns#"
   xmlns:rdf="http://www.w3.org/1999/02/22-rdf-syntax-ns#"
   xmlns:svg="http://www.w3.org/2000/svg"
   xmlns="http://www.w3.org/2000/svg"
   version="1.1"
   x="0px"
   y="0px"
   width="255.118px"
   height="255.118px"
   viewBox="0 0 255.118 255.118"
   enable-background="new 0 0 255.118 255.118"
   xml:space="preserve"
   id="svg871"><metadata
   id="metadata877"><rdf:RDF><cc:Work
       rdf:about=""><dc:format>image/svg+xml</dc:format><dc:type
         rdf:resource="http://purl.org/dc/dcmitype/StillImage" /><dc:title></dc:title></cc:Work></rdf:RDF></metadata><defs
   id="defs875" />

<g
   transform="matrix(0.9,0,0,0.9,12.745095,13.129519)"
   id="output-line-logo"
   style="fill:#fbd30b;fill-opacity:1;stroke:#2f2b2f;stroke-opacity:1">
	<g
   id="CIRCLE_1_"
   style="fill:#fbd30b;fill-opacity:1;stroke:#2f2b2f;stroke-opacity:1">
		<g
   id="XMLID_1_"
   style="fill:#fbd30b;fill-opacity:1;stroke:#2f2b2f;stroke-opacity:1">
			<g
   id="g864"
   style="fill:#fbd30b;fill-opacity:1;stroke:#2f2b2f;stroke-opacity:1">
				<path
   fill="#FBD30B"
   d="m 233.9,105.433 0.66,4.01 -0.1,4.061 -0.85,3.979 -1.59,3.74 -2.25,3.38 -2.84,2.9 2.84,2.9 2.25,3.38 1.59,3.75 0.85,3.97 0.1,4.06 -0.66,4.011 -1.39,3.819 -2.08,3.49 -2.7,3.04 -3.22,2.48 -3.63,1.84 -3.9,1.12 -4.05,0.39 h -34.4 l -6.85,7.75 -8.01,6.55 21.78,37.73 -8.86,5.12 -26.93,-46.631 6.96,-3.819 6.32,-4.811 5.54,-5.689 4.64,-6.44 h 39.81 l 2.24,-0.22 2.14,-0.65 1.98,-1.06 1.74,-1.42 1.42,-1.74 1.06,-1.98 0.65,-2.14 0.22,-2.24 -0.22,-2.229 -0.65,-2.15 -1.06,-1.97 -1.42,-1.74 -1.74,-1.42 -1.98,-1.06 -2.14,-0.65 -2.24,-0.22 h -31.91 v -10.24 h 31.91 l 2.24,-0.22 2.14,-0.65 1.98,-1.06 1.74,-1.42 1.42,-1.73 1.06,-1.979 0.65,-2.15 0.22,-2.23 -0.22,-2.229 -0.65,-2.15 -1.06,-1.979 -1.42,-1.73 -1.74,-1.43 -1.98,-1.05 -2.14,-0.66 -2.24,-0.22 h -39.81 l -5.6,-7.561 -6.84,-6.46 -7.86,-5.17 -8.65,-3.71 -9.16,-2.15 -9.4,-0.51 -9.34,1.141 -14.71,-25.48 -1.89,-2.64 -2.37,-2.221 -2.75,-1.71 -3.04,-1.14 -3.21,-0.53 -3.24,0.101 -3.16,0.739 -2.96,1.341 -2.64,1.89 -2.22,2.37 -1.71,2.76 -1.15,3.04 -0.53,3.2 0.11,3.25 0.74,3.16 1.34,2.96 14.71,25.479 -5.66,7.511 -4.26,8.399 -2.72,9 -1.11,9.351 0.55,9.39 2.18,9.149 3.74,8.631 -19.9,34.489 -0.93,2.04 -0.51,2.19 -0.07,2.24 0.36,2.21 0.79,2.1 1.19,1.91 1.53,1.63 1.82,1.31 2.05,0.931 2.18,0.51 2.25,0.07 2.21,-0.37 2.1,-0.79 1.9,-1.18 1.64,-1.53 1.31,-1.83 15.96,-27.64 8.86,5.119 -15.96,27.641 -0.92,2.04 -0.51,2.189 -0.08,2.24 0.37,2.21 0.79,2.101 1.19,1.909 1.53,1.641 1.82,1.3 2.05,0.93 2.18,0.51 2.24,0.07 2.22,-0.359 2.1,-0.79 1.9,-1.19 1.64,-1.53 1.31,-1.83 15.95,-27.64 8.87,5.12 -15.96,27.64 -2.35,3.32 -2.93,2.81 -3.4,2.221 -3.76,1.55 -3.98,0.81 -4.07,0.07 -4,-0.7 -3.8,-1.439 -3.47,-2.12 -3.01,-2.721 -2.45,-3.25 -1.8,-3.64 -1.09,-3.91 -3.94,1.01 -4.06,0.261 -4.03,-0.5 -3.87,-1.24 -3.57,-1.95 -3.14,-2.57 -2.61,-3.119 -1.97,-3.551 -1.29,-3.859 -0.54,-4.021 0.22,-4.06 0.98,-3.95 1.69,-3.69 17.2,-29.8 -2.4,-6.569 -3.85,3.319 -4.42,2.53 -4.81,1.64 -5.04,0.71 -5.08,-0.25 -4.94,-1.21 -4.62,-2.12 -4.14,-2.96 -3.5,-3.689 -2.75,-4.28 -1.89,-4.72 -0.96,-5 v -5.08 l 0.96,-5 1.89,-4.72 2.75,-4.28 3.5,-3.69 4.14,-2.949 4.62,-2.131 4.94,-1.21 5.08,-0.25 5.04,0.71 4.81,1.65 4.42,2.53 3.85,3.31 3.73,-9.46 5.17,-8.74 -11.23,-19.46 -2.17,-4.779 -1.19,-5.12 -0.17,-5.25 0.85,-5.181 1.85,-4.92 2.78,-4.46 3.59,-3.83 4.27,-3.06 4.79,-2.17 5.11,-1.2 5.25,-0.17 5.19,0.86 4.91,1.85 4.46,2.771 3.84,3.59 3.06,4.27 11.23,19.46 10.16,-0.109 10.05,1.5 -0.94,-4.99 0.02,-5.09 0.98,-4.99 1.9,-4.72 2.76,-4.271 3.52,-3.67 4.15,-2.95 4.63,-2.1 4.94,-1.2 5.08,-0.229 5.04,0.72 4.8,1.67 4.41,2.54 3.84,3.33 3.15,4 2.34,4.52 1.44,4.88 0.49,5.061 -0.48,5.06 -1.42,4.891 -2.32,4.52 -3.13,4.01 -3.84,3.341 -4.39,2.56 -4.8,1.68 4.49,5.37 h 34.4 l 4.05,0.38 3.9,1.13 3.63,1.83 3.22,2.49 2.7,3.04 2.08,3.48 z m -49.72,-47.56 c 0,-9.141 -7.42,-16.561 -16.56,-16.561 -9.15,0 -16.56,7.42 -16.56,16.561 0,9.149 7.41,16.569 16.56,16.569 9.14,0 16.56,-7.42 16.56,-16.569 z m -120.6,69.63 c 0,-9.15 -7.41,-16.561 -16.56,-16.561 -9.15,0 -16.56,7.41 -16.56,16.561 0,9.151 7.41,16.56 16.56,16.56 9.15,0 16.56,-7.41 16.56,-16.56 z"
   id="path858"
   style="fill:#fbd30b;fill-opacity:1;stroke:#2f2b2f;stroke-width:1.88976;stroke-miterlimit:4;stroke-dasharray:none;stroke-opacity:1" />
				<path
   fill="#2F2B2F"
   d="m 167.62,41.313 c 9.14,0 16.56,7.42 16.56,16.561 0,9.149 -7.42,16.569 -16.56,16.569 -9.15,0 -16.56,-7.42 -16.56,-16.569 0,-9.142 7.41,-16.561 16.56,-16.561 z"
   id="path860"
   style="fill:none;fill-opacity:1;stroke:#2f2b2f;stroke-width:1.88976;stroke-miterlimit:4;stroke-dasharray:none;stroke-opacity:1" />
				<path
   fill="#2F2B2F"
   d="m 47.02,110.942 c 9.15,0 16.56,7.41 16.56,16.561 0,9.151 -7.41,16.56 -16.56,16.56 -9.15,0 -16.56,-7.409 -16.56,-16.56 0,-9.151 7.41,-16.561 16.56,-16.561 z"
   id="path862"
   style="fill:none;fill-opacity:1;stroke:#2f2b2f;stroke-width:1.88976;stroke-miterlimit:4;stroke-dasharray:none;stroke-opacity:1" />
			</g>
			<g
   id="g866"
   style="fill:#fbd30b;fill-opacity:1;stroke:#2f2b2f;stroke-opacity:1">
			</g>
		</g>
	</g>
</g>
</svg>
