<?xml version="1.0" encoding="utf-8"?>
<!-- Generator: Adobe Illustrator 14.0.0, SVG Export Plug-In . SVG Version: 6.00 Build 43363)  -->
<!DOCTYPE svg PUBLIC "-//W3C//DTD SVG 1.1//EN" "http://www.w3.org/Graphics/SVG/1.1/DTD/svg11.dtd">
<svg version="1.1" xmlns="http://www.w3.org/2000/svg" xmlns:xlink="http://www.w3.org/1999/xlink" x="0px" y="0px"
	 width="255.118px" height="255.118px" viewBox="0 0 255.118 255.118" enable-background="new 0 0 255.118 255.118"
	 xml:space="preserve">
<g id="output-line-boundary">
	<g id="LWPOLYLINE_1_">
		<g id="XMLID_2_">
			<g>
				<polygon fill="#2F2B2F" points="245.59,54.473 245.59,200.543 244.91,208.373 242.87,215.973 239.55,223.113 235.03,229.553 
					229.47,235.113 223.02,239.633 215.89,242.953 208.29,244.993 200.45,245.673 54.38,245.673 45.58,244.813 37.11,242.243 
					29.31,238.073 22.47,232.453 16.85,225.613 12.68,217.813 10.11,209.343 9.25,200.543 9.25,54.473 9.93,46.633 11.97,39.033 
					15.29,31.903 19.81,25.453 25.37,19.893 31.81,15.383 38.95,12.053 46.55,10.013 54.38,9.333 200.45,9.333 209.26,10.203 
					217.73,12.763 225.53,16.933 232.37,22.553 237.98,29.393 242.16,37.192 244.72,45.663 				"/>
			</g>
			<g>
				
					<line fill="none" stroke="#2F2B2F" stroke-width="0.7087" stroke-linecap="round" stroke-linejoin="round" x1="54.38" y1="245.673" x2="200.45" y2="245.673"/>
				<polyline fill="none" stroke="#2F2B2F" stroke-width="0.7087" stroke-linecap="round" stroke-linejoin="round" points="
					200.45,245.673 208.29,244.993 215.89,242.953 223.02,239.633 229.47,235.113 235.03,229.553 239.55,223.113 242.87,215.973 
					244.91,208.373 245.59,200.543 				"/>
				
					<line fill="none" stroke="#2F2B2F" stroke-width="0.7087" stroke-linecap="round" stroke-linejoin="round" x1="245.59" y1="200.543" x2="245.59" y2="54.473"/>
				<polyline fill="none" stroke="#2F2B2F" stroke-width="0.7087" stroke-linecap="round" stroke-linejoin="round" points="
					245.59,54.473 244.72,45.663 242.16,37.192 237.98,29.393 232.37,22.553 225.53,16.933 217.73,12.763 209.26,10.203 
					200.45,9.333 				"/>
				
					<line fill="none" stroke="#2F2B2F" stroke-width="0.7087" stroke-linecap="round" stroke-linejoin="round" x1="200.45" y1="9.333" x2="54.38" y2="9.333"/>
				<polyline fill="none" stroke="#2F2B2F" stroke-width="0.7087" stroke-linecap="round" stroke-linejoin="round" points="
					54.38,9.333 46.55,10.013 38.95,12.053 31.81,15.383 25.37,19.893 19.81,25.453 15.29,31.903 11.97,39.033 9.93,46.633 
					9.25,54.473 				"/>
				
					<line fill="none" stroke="#2F2B2F" stroke-width="0.7087" stroke-linecap="round" stroke-linejoin="round" x1="9.25" y1="54.473" x2="9.25" y2="200.543"/>
				<polyline fill="none" stroke="#2F2B2F" stroke-width="0.7087" stroke-linecap="round" stroke-linejoin="round" points="
					9.25,200.543 10.11,209.343 12.68,217.813 16.85,225.613 22.47,232.453 29.31,238.073 37.11,242.243 45.58,244.813 
					54.38,245.673 				"/>
			</g>
		</g>
	</g>
</g>
<g id="output-line-logo">
	<g id="CIRCLE_1_">
		<g id="XMLID_1_">
			<g>
				<path fill="#FBD30B" d="M233.9,105.433l0.66,4.01l-0.1,4.061l-0.85,3.979l-1.59,3.74l-2.25,3.38l-2.84,2.9l2.84,2.9l2.25,3.38
					l1.59,3.75l0.85,3.97l0.1,4.06l-0.66,4.011l-1.39,3.819l-2.08,3.49l-2.7,3.04l-3.22,2.48l-3.63,1.84l-3.9,1.12l-4.05,0.39h-34.4
					l-6.85,7.75l-8.01,6.55l21.78,37.73l-8.86,5.12l-26.93-46.631l6.96-3.819l6.32-4.811l5.54-5.689l4.64-6.44h39.81l2.24-0.22
					l2.14-0.65l1.98-1.06l1.74-1.42l1.42-1.74l1.06-1.98l0.65-2.14l0.22-2.24l-0.22-2.229l-0.65-2.15l-1.06-1.97l-1.42-1.74
					l-1.74-1.42l-1.98-1.06l-2.14-0.65l-2.24-0.22h-31.91v-10.24h31.91l2.24-0.22l2.14-0.65l1.98-1.06l1.74-1.42l1.42-1.73
					l1.06-1.979l0.65-2.15l0.22-2.23l-0.22-2.229l-0.65-2.15l-1.06-1.979l-1.42-1.73l-1.74-1.43l-1.98-1.05l-2.14-0.66l-2.24-0.22
					h-39.81l-5.6-7.561l-6.84-6.46l-7.86-5.17l-8.65-3.71l-9.16-2.15l-9.4-0.51l-9.34,1.141l-14.71-25.48l-1.89-2.64l-2.37-2.221
					l-2.75-1.71l-3.04-1.14l-3.21-0.53l-3.24,0.101l-3.16,0.739l-2.96,1.341l-2.64,1.89l-2.22,2.37l-1.71,2.76l-1.15,3.04l-0.53,3.2
					l0.11,3.25l0.74,3.16l1.34,2.96l14.71,25.479l-5.66,7.511l-4.26,8.399l-2.72,9l-1.11,9.351l0.55,9.39l2.18,9.149l3.74,8.631
					l-19.9,34.489l-0.93,2.04l-0.51,2.19l-0.07,2.24l0.36,2.21l0.79,2.1l1.19,1.91l1.53,1.63l1.82,1.31l2.05,0.931l2.18,0.51
					l2.25,0.07l2.21-0.37l2.1-0.79l1.9-1.18l1.64-1.53l1.31-1.83l15.96-27.64l8.86,5.119l-15.96,27.641l-0.92,2.04l-0.51,2.189
					l-0.08,2.24l0.37,2.21l0.79,2.101l1.19,1.909l1.53,1.641l1.82,1.3l2.05,0.93l2.18,0.51l2.24,0.07l2.22-0.359l2.1-0.79l1.9-1.19
					l1.64-1.53l1.31-1.83l15.95-27.64l8.87,5.12l-15.96,27.64l-2.35,3.32l-2.93,2.81l-3.4,2.221l-3.76,1.55l-3.98,0.81l-4.07,0.07
					l-4-0.7l-3.8-1.439l-3.47-2.12l-3.01-2.721l-2.45-3.25l-1.8-3.64l-1.09-3.91l-3.94,1.01l-4.06,0.261l-4.03-0.5l-3.87-1.24
					l-3.57-1.95l-3.14-2.57l-2.61-3.119l-1.97-3.551l-1.29-3.859l-0.54-4.021l0.22-4.06l0.98-3.95l1.69-3.69l17.2-29.8l-2.4-6.569
					l-3.85,3.319l-4.42,2.53l-4.81,1.64l-5.04,0.71l-5.08-0.25l-4.94-1.21l-4.62-2.12l-4.14-2.96l-3.5-3.689l-2.75-4.28l-1.89-4.72
					l-0.96-5v-5.08l0.96-5l1.89-4.72l2.75-4.28l3.5-3.69l4.14-2.949l4.62-2.131l4.94-1.21l5.08-0.25l5.04,0.71l4.81,1.65l4.42,2.53
					l3.85,3.31l3.73-9.46l5.17-8.74l-11.23-19.46l-2.17-4.779l-1.19-5.12l-0.17-5.25l0.85-5.181l1.85-4.92l2.78-4.46l3.59-3.83
					l4.27-3.06l4.79-2.17l5.11-1.2l5.25-0.17l5.19,0.86l4.91,1.85l4.46,2.771l3.84,3.59l3.06,4.27l11.23,19.46l10.16-0.109
					l10.05,1.5l-0.94-4.99l0.02-5.09l0.98-4.99l1.9-4.72l2.76-4.271l3.52-3.67l4.15-2.95l4.63-2.1l4.94-1.2l5.08-0.229l5.04,0.72
					l4.8,1.67l4.41,2.54l3.84,3.33l3.15,4l2.34,4.52l1.44,4.88l0.49,5.061l-0.48,5.06l-1.42,4.891l-2.32,4.52l-3.13,4.01
					l-3.84,3.341l-4.39,2.56l-4.8,1.68l4.49,5.37h34.4l4.05,0.38l3.9,1.13l3.63,1.83l3.22,2.49l2.7,3.04l2.08,3.48L233.9,105.433z
					 M184.18,57.873c0-9.141-7.42-16.561-16.56-16.561c-9.15,0-16.56,7.42-16.56,16.561c0,9.149,7.41,16.569,16.56,16.569
					C176.76,74.442,184.18,67.022,184.18,57.873z M63.58,127.503c0-9.15-7.41-16.561-16.56-16.561s-16.56,7.41-16.56,16.561
					s7.41,16.56,16.56,16.56S63.58,136.653,63.58,127.503z"/>
				<path fill="#2F2B2F" d="M167.62,41.313c9.14,0,16.56,7.42,16.56,16.561c0,9.149-7.42,16.569-16.56,16.569
					c-9.15,0-16.56-7.42-16.56-16.569C151.06,48.732,158.47,41.313,167.62,41.313z"/>
				<path fill="#2F2B2F" d="M47.02,110.942c9.15,0,16.56,7.41,16.56,16.561s-7.41,16.56-16.56,16.56s-16.56-7.409-16.56-16.56
					S37.87,110.942,47.02,110.942z"/>
			</g>
			<g>
			</g>
		</g>
	</g>
</g>
</svg>
