<?xml version="1.0" encoding="UTF-8" standalone="no"?>
<svg
   xmlns:dc="http://purl.org/dc/elements/1.1/"
   xmlns:cc="http://creativecommons.org/ns#"
   xmlns:rdf="http://www.w3.org/1999/02/22-rdf-syntax-ns#"
   xmlns:svg="http://www.w3.org/2000/svg"
   xmlns="http://www.w3.org/2000/svg"
   xmlns:sodipodi="http://sodipodi.sourceforge.net/DTD/sodipodi-0.dtd"
   xmlns:inkscape="http://www.inkscape.org/namespaces/inkscape"
   inkscape:version="1.0rc1 (09960d6, 2020-04-09)"
   sodipodi:docname="monomi.ai-line-000000.svg"
   version="1.1"
   id="svg833"
   xml:space="preserve"
   width="374.17334"
   height="56.692665"
   viewBox="0 0 374.17334 56.692665"><sodipodi:namedview
     inkscape:current-layer="svg833"
     inkscape:window-maximized="0"
     inkscape:window-y="23"
     inkscape:window-x="151"
     inkscape:cy="-29.811696"
     inkscape:cx="182.47299"
     inkscape:zoom="1.427146"
     showgrid="false"
     id="namedview1257"
     inkscape:window-height="729"
     inkscape:window-width="1300"
     inkscape:pageshadow="2"
     inkscape:pageopacity="0"
     guidetolerance="10"
     gridtolerance="10"
     objecttolerance="10"
     borderopacity="1"
     bordercolor="#666666"
     pagecolor="#ffffff" /><metadata
     id="metadata839"><rdf:RDF><cc:Work
         rdf:about=""><dc:format>image/svg+xml</dc:format><dc:type
           rdf:resource="http://purl.org/dc/dcmitype/StillImage" /><dc:title /></cc:Work></rdf:RDF></metadata><defs
     id="defs837"><clipPath
       clipPathUnits="userSpaceOnUse"
       id="clipPath877"><path
         d="M 0,42.52 H 280.63 V 0 H 0 Z"
         id="path875" /></clipPath></defs><g
     style="stroke-width:0.37500001;stroke-miterlimit:4;stroke-dasharray:none;stroke:#000000;stroke-opacity:1"
     id="g841"
     transform="matrix(1.3333333,0,0,-1.3333333,0,56.692667)"><g
       id="g843"
       transform="translate(26.6094,30.9365)"
       style="stroke-width:0.37500001;stroke-miterlimit:4;stroke-dasharray:none;stroke:#000000;stroke-opacity:1"><path
         d="m 0,0 -1.537,1.507 -1.792,1.194 -1.982,0.838 -2.104,0.454 -2.152,0.053 -2.124,-0.349 -2.021,-0.739 -1.849,-1.104 -1.609,-1.43 -1.315,-1.704 -0.973,-1.92 -0.598,-2.068 -0.202,-2.143"
         style="fill:none;stroke:#000000;stroke-width:0.37500001;stroke-linecap:round;stroke-linejoin:round;stroke-miterlimit:4;stroke-dasharray:none;stroke-opacity:1"
         id="path845" /></g><g
       id="g847"
       transform="translate(6.3511,23.5254)"
       style="stroke-width:0.37500001;stroke-miterlimit:4;stroke-dasharray:none;stroke:#000000;stroke-opacity:1"><path
         d="M 0,0 V -16.906 H 5.422 V 0"
         style="fill:none;stroke:#000000;stroke-width:0.37500001;stroke-linecap:round;stroke-linejoin:round;stroke-miterlimit:4;stroke-dasharray:none;stroke-opacity:1"
         id="path849" /></g><g
       id="g851"
       transform="translate(11.7734,23.5254)"
       style="stroke-width:0.37500001;stroke-miterlimit:4;stroke-dasharray:none;stroke:#000000;stroke-opacity:1"><path
         d="M 0,0 0.117,1.183 0.461,2.32 1.022,3.368 1.776,4.287 2.694,5.041 3.743,5.601 4.88,5.946 6.063,6.063 7.245,5.946 8.382,5.601 9.43,5.041 10.349,4.287 11.103,3.368 11.663,2.32 12.008,1.183 12.125,0"
         style="fill:none;stroke:#000000;stroke-width:0.37500001;stroke-linecap:round;stroke-linejoin:round;stroke-miterlimit:4;stroke-dasharray:none;stroke-opacity:1"
         id="path853" /></g><g
       id="g855"
       transform="translate(23.8979,23.5254)"
       style="stroke-width:0.37500001;stroke-miterlimit:4;stroke-dasharray:none;stroke:#000000;stroke-opacity:1"><path
         d="M 0,0 V -16.906 H 5.422 V 0"
         style="fill:none;stroke:#000000;stroke-width:0.37500001;stroke-linecap:round;stroke-linejoin:round;stroke-miterlimit:4;stroke-dasharray:none;stroke-opacity:1"
         id="path857" /></g><g
       id="g859"
       transform="translate(29.3203,23.5254)"
       style="stroke-width:0.37500001;stroke-miterlimit:4;stroke-dasharray:none;stroke:#000000;stroke-opacity:1"><path
         d="M 0,0 0.117,1.183 0.461,2.32 1.022,3.368 1.776,4.287 2.694,5.041 3.743,5.601 4.88,5.946 6.063,6.063 7.245,5.946 8.382,5.601 9.43,5.041 10.349,4.287 11.103,3.368 11.663,2.32 12.008,1.183 12.125,0"
         style="fill:none;stroke:#000000;stroke-width:0.37500001;stroke-linecap:round;stroke-linejoin:round;stroke-miterlimit:4;stroke-dasharray:none;stroke-opacity:1"
         id="path861" /></g><g
       id="g863"
       transform="translate(41.4448,23.5254)"
       style="stroke-width:0.37500001;stroke-miterlimit:4;stroke-dasharray:none;stroke:#000000;stroke-opacity:1"><path
         d="M 0,0 V -16.906 H 5.422 V 0"
         style="fill:none;stroke:#000000;stroke-width:0.37500001;stroke-linecap:round;stroke-linejoin:round;stroke-miterlimit:4;stroke-dasharray:none;stroke-opacity:1"
         id="path865" /></g><g
       id="g867"
       transform="translate(46.8672,23.5254)"
       style="stroke-width:0.37500001;stroke-miterlimit:4;stroke-dasharray:none;stroke:#000000;stroke-opacity:1"><path
         d="m 0,0 -0.202,2.143 -0.598,2.068 -0.973,1.92 -1.315,1.704 -1.609,1.43 -1.848,1.104 -2.022,0.739 -2.124,0.35 -2.152,-0.054 -2.104,-0.454 -1.983,-0.838 -1.791,-1.194 -1.537,-1.507"
         style="fill:none;stroke:#000000;stroke-width:0.37500001;stroke-linecap:round;stroke-linejoin:round;stroke-miterlimit:4;stroke-dasharray:none;stroke-opacity:1"
         id="path869" /></g><g
       id="g871"
       style="stroke-width:0.37500001;stroke-miterlimit:4;stroke-dasharray:none;stroke:#000000;stroke-opacity:1"><g
         id="g873"
         clip-path="url(#clipPath877)"
         style="stroke-width:0.37500001;stroke-miterlimit:4;stroke-dasharray:none;stroke:#000000;stroke-opacity:1"><g
           id="g879"
           transform="translate(80.6807,20.8145)"
           style="stroke-width:0.37500001;stroke-miterlimit:4;stroke-dasharray:none;stroke:#000000;stroke-opacity:1"><path
             d="m 0,0 c 0,7.84 -6.355,14.196 -14.195,14.196 -7.841,0 -14.196,-6.356 -14.196,-14.196 0,-7.84 6.355,-14.195 14.196,-14.195 C -6.355,-14.195 0,-7.84 0,0 Z"
             style="fill:none;stroke:#000000;stroke-width:0.37500001;stroke-linecap:round;stroke-linejoin:round;stroke-miterlimit:4;stroke-dasharray:none;stroke-opacity:1"
             id="path881" /></g><g
           id="g883"
           transform="translate(75.2588,20.8145)"
           style="stroke-width:0.37500001;stroke-miterlimit:4;stroke-dasharray:none;stroke:#000000;stroke-opacity:1"><path
             d="m 0,0 c 0,4.845 -3.928,8.773 -8.773,8.773 -4.846,0 -8.774,-3.928 -8.774,-8.773 0,-4.846 3.928,-8.773 8.774,-8.773 C -3.928,-8.773 0,-4.846 0,0 Z"
             style="fill:none;stroke:#000000;stroke-width:0.37500001;stroke-linecap:round;stroke-linejoin:round;stroke-miterlimit:4;stroke-dasharray:none;stroke-opacity:1"
             id="path885" /></g><g
           id="g887"
           transform="translate(109.0723,20.8145)"
           style="stroke-width:0.37500001;stroke-miterlimit:4;stroke-dasharray:none;stroke:#000000;stroke-opacity:1"><path
             d="M 0,0 V -14.195 H 5.422 V 0"
             style="fill:none;stroke:#000000;stroke-width:0.37500001;stroke-linecap:round;stroke-linejoin:round;stroke-miterlimit:4;stroke-dasharray:none;stroke-opacity:1"
             id="path889" /></g><g
           id="g891"
           transform="translate(114.4946,20.8145)"
           style="stroke-width:0.37500001;stroke-miterlimit:4;stroke-dasharray:none;stroke:#000000;stroke-opacity:1"><path
             d="m 0,0 -0.273,2.77 -0.808,2.663 -1.312,2.454 -1.765,2.151 -2.151,1.765 -2.454,1.312 -2.663,0.808 -2.77,0.273 -2.769,-0.273 -2.663,-0.808 -2.455,-1.312 -2.15,-1.765 L -25.999,7.887 -27.311,5.433 -28.119,2.77 -28.392,0"
             style="fill:none;stroke:#000000;stroke-width:0.37500001;stroke-linecap:round;stroke-linejoin:round;stroke-miterlimit:4;stroke-dasharray:none;stroke-opacity:1"
             id="path893" /></g><g
           id="g895"
           transform="translate(86.103,20.8145)"
           style="stroke-width:0.37500001;stroke-miterlimit:4;stroke-dasharray:none;stroke:#000000;stroke-opacity:1"><path
             d="M 0,0 V -14.195 H 5.422 V 0"
             style="fill:none;stroke:#000000;stroke-width:0.37500001;stroke-linecap:round;stroke-linejoin:round;stroke-miterlimit:4;stroke-dasharray:none;stroke-opacity:1"
             id="path897" /></g><g
           id="g899"
           transform="translate(91.5254,20.8145)"
           style="stroke-width:0.37500001;stroke-miterlimit:4;stroke-dasharray:none;stroke:#000000;stroke-opacity:1"><path
             d="m 0,0 0.168,1.711 0.5,1.646 0.811,1.517 1.091,1.33 1.329,1.091 1.517,0.81 1.646,0.5 1.711,0.168 1.712,-0.168 1.646,-0.5 1.517,-0.81 1.329,-1.091 1.091,-1.33 L 16.879,3.357 17.378,1.711 17.547,0"
             style="fill:none;stroke:#000000;stroke-width:0.37500001;stroke-linecap:round;stroke-linejoin:round;stroke-miterlimit:4;stroke-dasharray:none;stroke-opacity:1"
             id="path901" /></g><g
           id="g903"
           transform="translate(148.3081,20.8145)"
           style="stroke-width:0.37500001;stroke-miterlimit:4;stroke-dasharray:none;stroke:#000000;stroke-opacity:1"><path
             d="m 0,0 c 0,7.84 -6.355,14.196 -14.196,14.196 -7.84,0 -14.195,-6.356 -14.195,-14.196 0,-7.84 6.355,-14.195 14.195,-14.195 C -6.355,-14.195 0,-7.84 0,0 Z"
             style="fill:none;stroke:#000000;stroke-width:0.37500001;stroke-linecap:round;stroke-linejoin:round;stroke-miterlimit:4;stroke-dasharray:none;stroke-opacity:1"
             id="path905" /></g><g
           id="g907"
           transform="translate(142.8862,20.8145)"
           style="stroke-width:0.37500001;stroke-miterlimit:4;stroke-dasharray:none;stroke:#000000;stroke-opacity:1"><path
             d="m 0,0 c 0,4.845 -3.928,8.773 -8.774,8.773 -4.845,0 -8.773,-3.928 -8.773,-8.773 0,-4.846 3.928,-8.773 8.773,-8.773 C -3.928,-8.773 0,-4.846 0,0 Z"
             style="fill:none;stroke:#000000;stroke-width:0.37500001;stroke-linecap:round;stroke-linejoin:round;stroke-miterlimit:4;stroke-dasharray:none;stroke-opacity:1"
             id="path909" /></g><g
           id="g911"
           transform="translate(173.9888,30.9365)"
           style="stroke-width:0.37500001;stroke-miterlimit:4;stroke-dasharray:none;stroke:#000000;stroke-opacity:1"><path
             d="m 0,0 -1.537,1.507 -1.791,1.194 -1.984,0.838 -2.103,0.454 -2.152,0.053 -2.124,-0.349 -2.022,-0.739 -1.848,-1.104 -1.609,-1.43 -1.315,-1.704 -0.973,-1.92 -0.599,-2.068 -0.201,-2.143"
             style="fill:none;stroke:#000000;stroke-width:0.37500001;stroke-linecap:round;stroke-linejoin:round;stroke-miterlimit:4;stroke-dasharray:none;stroke-opacity:1"
             id="path913" /></g><g
           id="g915"
           transform="translate(153.731,23.5254)"
           style="stroke-width:0.37500001;stroke-miterlimit:4;stroke-dasharray:none;stroke:#000000;stroke-opacity:1"><path
             d="M 0,0 V -16.906 H 5.422 V 0"
             style="fill:none;stroke:#000000;stroke-width:0.37500001;stroke-linecap:round;stroke-linejoin:round;stroke-miterlimit:4;stroke-dasharray:none;stroke-opacity:1"
             id="path917" /></g><g
           id="g919"
           transform="translate(159.1528,23.5254)"
           style="stroke-width:0.37500001;stroke-miterlimit:4;stroke-dasharray:none;stroke:#000000;stroke-opacity:1"><path
             d="M 0,0 0.116,1.183 0.461,2.32 1.021,3.368 1.775,4.287 2.694,5.041 3.742,5.601 4.88,5.946 6.063,6.063 7.245,5.946 8.382,5.601 9.431,5.041 10.349,4.287 11.103,3.368 11.663,2.32 12.008,1.183 12.125,0"
             style="fill:none;stroke:#000000;stroke-width:0.37500001;stroke-linecap:round;stroke-linejoin:round;stroke-miterlimit:4;stroke-dasharray:none;stroke-opacity:1"
             id="path921" /></g><g
           id="g923"
           transform="translate(171.2778,23.5254)"
           style="stroke-width:0.37500001;stroke-miterlimit:4;stroke-dasharray:none;stroke:#000000;stroke-opacity:1"><path
             d="M 0,0 V -16.906 H 5.422 V 0"
             style="fill:none;stroke:#000000;stroke-width:0.37500001;stroke-linecap:round;stroke-linejoin:round;stroke-miterlimit:4;stroke-dasharray:none;stroke-opacity:1"
             id="path925" /></g><g
           id="g927"
           transform="translate(176.6997,23.5254)"
           style="stroke-width:0.37500001;stroke-miterlimit:4;stroke-dasharray:none;stroke:#000000;stroke-opacity:1"><path
             d="M 0,0 0.116,1.183 0.461,2.32 1.021,3.368 1.775,4.287 2.694,5.041 3.742,5.601 4.88,5.946 6.063,6.063 7.245,5.946 8.382,5.601 9.431,5.041 10.349,4.287 11.103,3.368 11.663,2.32 12.008,1.183 12.124,0"
             style="fill:none;stroke:#000000;stroke-width:0.37500001;stroke-linecap:round;stroke-linejoin:round;stroke-miterlimit:4;stroke-dasharray:none;stroke-opacity:1"
             id="path929" /></g><g
           id="g931"
           transform="translate(188.8237,23.5254)"
           style="stroke-width:0.37500001;stroke-miterlimit:4;stroke-dasharray:none;stroke:#000000;stroke-opacity:1"><path
             d="M 0,0 V -16.906 H 5.423 V 0"
             style="fill:none;stroke:#000000;stroke-width:0.37500001;stroke-linecap:round;stroke-linejoin:round;stroke-miterlimit:4;stroke-dasharray:none;stroke-opacity:1"
             id="path933" /></g><g
           id="g935"
           transform="translate(194.2466,23.5254)"
           style="stroke-width:0.37500001;stroke-miterlimit:4;stroke-dasharray:none;stroke:#000000;stroke-opacity:1"><path
             d="m 0,0 -0.202,2.143 -0.598,2.068 -0.973,1.92 -1.315,1.704 -1.609,1.43 -1.849,1.104 -2.021,0.739 -2.124,0.35 -2.152,-0.054 -2.104,-0.454 -1.983,-0.838 -1.791,-1.194 -1.537,-1.507"
             style="fill:none;stroke:#000000;stroke-width:0.37500001;stroke-linecap:round;stroke-linejoin:round;stroke-miterlimit:4;stroke-dasharray:none;stroke-opacity:1"
             id="path937" /></g><path
           d="m 206.371,6.619 h 5.423 V 35.01 h -5.423 z"
           style="fill:none;stroke:#000000;stroke-width:0.37500001;stroke-linecap:round;stroke-linejoin:round;stroke-miterlimit:4;stroke-dasharray:none;stroke-opacity:1"
           id="path939" /><g
           id="g941"
           transform="translate(222.6382,9.3301)"
           style="stroke-width:0.37500001;stroke-miterlimit:4;stroke-dasharray:none;stroke:#000000;stroke-opacity:1"><path
             d="m 0,0 c 0,1.497 -1.214,2.711 -2.712,2.711 -1.497,0 -2.711,-1.214 -2.711,-2.711 0,-1.497 1.214,-2.711 2.711,-2.711 C -1.214,-2.711 0,-1.497 0,0 Z"
             style="fill:none;stroke:#000000;stroke-width:0.37500001;stroke-linecap:round;stroke-linejoin:round;stroke-miterlimit:4;stroke-dasharray:none;stroke-opacity:1"
             id="path943" /></g><path
           d="m 268.576,6.619 h 5.423 V 35.01 h -5.423 z"
           style="fill:none;stroke:#000000;stroke-width:0.37500001;stroke-linecap:round;stroke-linejoin:round;stroke-miterlimit:4;stroke-dasharray:none;stroke-opacity:1"
           id="path945" /><g
           id="g947"
           transform="translate(251.0288,20.8145)"
           style="stroke-width:0.37500001;stroke-miterlimit:4;stroke-dasharray:none;stroke:#000000;stroke-opacity:1"><path
             d="m 0,0 -0.168,-1.712 -0.499,-1.645 -0.812,-1.517 -1.09,-1.33 -1.329,-1.091 -1.518,-0.81 -1.646,-0.499 -1.711,-0.169 -1.711,0.169 -1.647,0.499 -1.516,0.81 -1.33,1.091 -1.09,1.33 -0.812,1.517 -0.499,1.645 L -17.547,0"
             style="fill:none;stroke:#000000;stroke-width:0.37500001;stroke-linecap:round;stroke-linejoin:round;stroke-miterlimit:4;stroke-dasharray:none;stroke-opacity:1"
             id="path949" /></g><g
           id="g951"
           transform="translate(233.4819,20.8145)"
           style="stroke-width:0.37500001;stroke-miterlimit:4;stroke-dasharray:none;stroke:#000000;stroke-opacity:1"><path
             d="m 0,0 0.169,1.711 0.499,1.646 0.811,1.517 1.091,1.33 1.329,1.091 1.517,0.81 1.647,0.5 1.71,0.168 1.712,-0.168 1.646,-0.5 1.517,-0.81 1.33,-1.091 1.09,-1.33 L 16.88,3.357 17.379,1.711 17.547,0"
             style="fill:none;stroke:#000000;stroke-width:0.37500001;stroke-linecap:round;stroke-linejoin:round;stroke-miterlimit:4;stroke-dasharray:none;stroke-opacity:1"
             id="path953" /></g><g
           id="g955"
           transform="translate(256.4517,35.0103)"
           style="stroke-width:0.37500001;stroke-miterlimit:4;stroke-dasharray:none;stroke:#000000;stroke-opacity:1"><path
             d="M 0,0 H -5.423 V -3.036"
             style="fill:none;stroke:#000000;stroke-width:0.37500001;stroke-linecap:round;stroke-linejoin:round;stroke-miterlimit:4;stroke-dasharray:none;stroke-opacity:1"
             id="path957" /></g><g
           id="g959"
           transform="translate(251.0288,31.9746)"
           style="stroke-width:0.37500001;stroke-miterlimit:4;stroke-dasharray:none;stroke:#000000;stroke-opacity:1"><path
             d="m 0,0 -2.322,1.485 -2.567,1.009 -2.712,0.493 -2.756,-0.04 -2.698,-0.572 -2.535,-1.083 -2.278,-1.553 -1.936,-1.964 -1.519,-2.3 -1.046,-2.552 -0.532,-2.705 v -2.757 l 0.532,-2.705 1.046,-2.551 1.519,-2.301 1.936,-1.964 2.278,-1.552 2.535,-1.082 2.698,-0.574 2.756,-0.04 2.712,0.494 2.567,1.008 L 0,-22.32"
             style="fill:none;stroke:#000000;stroke-width:0.37500001;stroke-linecap:round;stroke-linejoin:round;stroke-miterlimit:4;stroke-dasharray:none;stroke-opacity:1"
             id="path961" /></g><g
           id="g963"
           transform="translate(251.0288,9.6543)"
           style="stroke-width:0.37500001;stroke-miterlimit:4;stroke-dasharray:none;stroke:#000000;stroke-opacity:1"><path
             d="M 0,0 V -3.035 H 5.423 V 25.356"
             style="fill:none;stroke:#000000;stroke-width:0.37500001;stroke-linecap:round;stroke-linejoin:round;stroke-miterlimit:4;stroke-dasharray:none;stroke-opacity:1"
             id="path965" /></g></g></g></g></svg>
