<?xml version="1.0" encoding="UTF-8" standalone="no"?>
<svg
   xmlns:dc="http://purl.org/dc/elements/1.1/"
   xmlns:cc="http://creativecommons.org/ns#"
   xmlns:rdf="http://www.w3.org/1999/02/22-rdf-syntax-ns#"
   xmlns:svg="http://www.w3.org/2000/svg"
   xmlns="http://www.w3.org/2000/svg"
   viewBox="0 0 374.17334 56.692665"
   height="56.692665"
   width="374.17334"
   xml:space="preserve"
   id="svg851"
   version="1.1"><metadata
     id="metadata857"><rdf:RDF><cc:Work
         rdf:about=""><dc:format>image/svg+xml</dc:format><dc:type
           rdf:resource="http://purl.org/dc/dcmitype/StillImage" /><dc:title></dc:title></cc:Work></rdf:RDF></metadata><defs
     id="defs855"><clipPath
       id="clipPath867"
       clipPathUnits="userSpaceOnUse"><path
         id="path865"
         d="M 0,42.52 H 280.63 V 0 H 0 Z" /></clipPath><clipPath
       id="clipPath875"
       clipPathUnits="userSpaceOnUse"><path
         id="path873"
         d="M 6.35498,35.0098 H 273.995 V 6.62012 H 6.35498 Z" /></clipPath></defs><g
     transform="matrix(1.3333333,0,0,-1.3333333,0,56.692667)"
     id="g859"><g
       style="fill:#000000;fill-opacity:1"
       id="g861"><g
         style="fill:#000000;fill-opacity:1"
         clip-path="url(#clipPath867)"
         id="g863"><g
           style="fill:#000000;fill-opacity:1"
           id="g869"><g
             style="fill:#000000;fill-opacity:1"
             id="g871" /><g
             style="fill:#000000;fill-opacity:1"
             id="g911"><g
               style="fill:#000000;fill-opacity:1"
               id="g909"
               clip-path="url(#clipPath875)"><path
                 id="path877"
                 style="fill:#000000;fill-opacity:1;fill-rule:nonzero;stroke:none"
                 d="m 273.995,6.62 h -5.42 v 28.39 h 5.42 z" /><g
                 style="fill:#000000;fill-opacity:1"
                 id="g881"
                 transform="translate(251.0249,20.8096)"><path
                   id="path879"
                   style="fill:#000000;fill-opacity:1;fill-rule:nonzero;stroke:none"
                   d="m 0,0 -0.16,1.72 -0.5,1.64 -0.81,1.52 -1.1,1.33 -1.32,1.09 -1.52,0.81 -1.65,0.5 -1.71,0.17 -1.709,-0.17 -1.651,-0.5 -1.51,-0.81 -1.33,-1.09 -1.09,-1.33 -0.82,-1.52 -0.49,-1.64 -0.17,-1.72 0.17,-1.71 0.49,-1.64 0.82,-1.52 1.09,-1.33 1.33,-1.09 1.51,-0.81 1.651,-0.5 1.709,-0.17 1.71,0.17 1.65,0.5 1.52,0.81 1.32,1.09 1.1,1.33 0.81,1.52 0.5,1.64 z M 5.43,14.2 V -14.189 H 0 v 3.029 l -2.32,-1.48 -2.56,-1.009 -2.72,-0.491 -2.75,0.04 -2.7,0.57 -2.54,1.08 -2.27,1.56 -1.94,1.96 -1.52,2.3 -1.05,2.55 -0.53,2.71 v 2.75 l 0.53,2.71 1.05,2.55 1.52,2.3 1.94,1.96 2.27,1.56 2.54,1.08 2.7,0.57 2.75,0.04 2.72,-0.49 2.56,-1.01 L 0,11.16 v 3.04 z" /></g><g
                 style="fill:#000000;fill-opacity:1"
                 id="g885"
                 transform="translate(219.9253,12.04)"><path
                   id="path883"
                   style="fill:#000000;fill-opacity:1;fill-rule:nonzero;stroke:none"
                   d="m 0,0 c 1.5,0 2.71,-1.21 2.71,-2.71 0,-1.5 -1.21,-2.71 -2.71,-2.71 -1.5,0 -2.71,1.21 -2.71,2.71 C -2.71,-1.21 -1.5,0 0,0" /></g><path
                 id="path887"
                 style="fill:#000000;fill-opacity:1;fill-rule:nonzero;stroke:none"
                 d="m 211.795,6.62 h -5.421 v 28.39 h 5.421 z" /><g
                 style="fill:#000000;fill-opacity:1"
                 id="g891"
                 transform="translate(194.2446,23.5298)"><path
                   id="path889"
                   style="fill:#000000;fill-opacity:1;fill-rule:nonzero;stroke:none"
                   d="M 0,0 V -16.91 H -5.42 V 0 L -5.54,1.18 -5.88,2.32 -6.439,3.36 -7.199,4.28 -8.109,5.04 -9.16,5.6 -10.3,5.94 -11.479,6.06 -12.67,5.94 -13.8,5.6 -14.85,5.04 -15.77,4.28 -16.52,3.36 -17.08,2.32 -17.43,1.18 -17.55,0 v -16.91 h -5.42 V 0 l -0.11,1.18 -0.35,1.14 -0.559,1.04 -0.75,0.92 -0.921,0.76 -1.05,0.56 -1.14,0.34 -1.179,0.12 L -30.21,5.94 -31.35,5.6 -32.399,5.04 -33.319,4.28 -34.069,3.36 -34.63,2.32 -34.979,1.18 -35.09,0 v -16.91 h -5.42 V 0 l 0.2,2.14 0.6,2.07 0.971,1.92 1.309,1.7 1.611,1.43 1.849,1.1 2.021,0.74 2.13,0.35 2.149,-0.05 2.101,-0.45 1.989,-0.84 1.79,-1.2 1.53,-1.5 1.54,1.5 1.79,1.2 1.981,0.84 2.109,0.45 2.151,0.05 2.12,-0.35 2.029,-0.74 1.841,-1.1 1.609,-1.43 1.32,-1.7 0.97,-1.92 0.601,-2.07 z" /></g><g
                 style="fill:#000000;fill-opacity:1"
                 id="g895"
                 transform="translate(142.8853,20.8096)"><path
                   id="path893"
                   style="fill:#000000;fill-opacity:1;fill-rule:nonzero;stroke:none"
                   d="m 0,0 c 0,4.85 -3.93,8.78 -8.771,8.78 -4.849,0 -8.779,-3.93 -8.779,-8.78 0,-4.84 3.93,-8.77 8.779,-8.77 C -3.93,-8.77 0,-4.84 0,0 M -8.771,14.2 C -0.931,14.2 5.42,7.84 5.42,0 c 0,-7.84 -6.351,-14.189 -14.191,-14.189 -7.839,0 -14.199,6.349 -14.199,14.189 0,7.84 6.36,14.2 14.199,14.2" /></g><g
                 style="fill:#000000;fill-opacity:1"
                 id="g899"
                 transform="translate(114.4951,20.8096)"><path
                   id="path897"
                   style="fill:#000000;fill-opacity:1;fill-rule:nonzero;stroke:none"
                   d="M 0,0 V -14.189 H -5.42 V 0 l -0.17,1.72 -0.5,1.64 -0.81,1.52 -1.09,1.33 -1.33,1.09 -1.52,0.81 -1.64,0.5 -1.72,0.17 -1.71,-0.17 -1.64,-0.5 L -19.07,7.3 -20.4,6.21 -21.49,4.88 -22.3,3.36 -22.8,1.72 -22.97,0 v -14.189 h -5.42 V 0 l 0.27,2.77 0.81,2.67 1.31,2.45 1.77,2.15 2.15,1.77 2.45,1.31 2.66,0.81 2.77,0.27 2.77,-0.27 2.67,-0.81 2.45,-1.31 2.15,-1.77 1.77,-2.15 1.31,-2.45 0.81,-2.67 z" /></g><g
                 style="fill:#000000;fill-opacity:1"
                 id="g903"
                 transform="translate(75.2549,20.8096)"><path
                   id="path901"
                   style="fill:#000000;fill-opacity:1;fill-rule:nonzero;stroke:none"
                   d="m 0,0 c 0,4.85 -3.92,8.78 -8.77,8.78 -4.85,0 -8.77,-3.93 -8.77,-8.78 0,-4.84 3.92,-8.77 8.77,-8.77 C -3.92,-8.77 0,-4.84 0,0 m -8.77,14.2 c 7.84,0 14.2,-6.36 14.2,-14.2 0,-7.84 -6.36,-14.189 -14.2,-14.189 -7.84,0 -14.2,6.349 -14.2,14.189 0,7.84 6.36,14.2 14.2,14.2" /></g><g
                 style="fill:#000000;fill-opacity:1"
                 id="g907"
                 transform="translate(46.8647,23.5298)"><path
                   id="path905"
                   style="fill:#000000;fill-opacity:1;fill-rule:nonzero;stroke:none"
                   d="M 0,0 V -16.91 H -5.42 V 0 L -5.54,1.18 -5.88,2.32 -6.44,3.36 -7.2,4.28 -8.11,5.04 -9.16,5.6 -10.3,5.94 -11.48,6.06 -12.66,5.94 -13.8,5.6 -14.85,5.04 -15.77,4.28 -16.52,3.36 -17.08,2.32 -17.43,1.18 -17.54,0 v -16.91 h -5.43 V 0 l -0.11,1.18 -0.35,1.14 -0.56,1.04 -0.75,0.92 -0.92,0.76 -1.05,0.56 -1.14,0.34 -1.18,0.12 L -30.21,5.94 -31.35,5.6 -32.4,5.04 -33.32,4.28 -34.07,3.36 -34.63,2.32 -34.97,1.18 -35.09,0 v -16.91 h -5.42 V 0 l 0.2,2.14 0.6,2.07 0.97,1.92 1.31,1.7 1.61,1.43 1.85,1.1 2.02,0.74 2.13,0.35 2.15,-0.05 2.1,-0.45 1.99,-0.84 1.79,-1.2 1.53,-1.5 1.54,1.5 1.79,1.2 1.98,0.84 2.11,0.45 2.15,0.05 2.13,-0.35 2.02,-0.74 1.84,-1.1 1.61,-1.43 1.32,-1.7 0.97,-1.92 0.6,-2.07 z" /></g></g></g></g></g></g></g></svg>
