<?xml version="1.0" encoding="UTF-8" standalone="no"?>
<svg
   xmlns:dc="http://purl.org/dc/elements/1.1/"
   xmlns:cc="http://creativecommons.org/ns#"
   xmlns:rdf="http://www.w3.org/1999/02/22-rdf-syntax-ns#"
   xmlns:svg="http://www.w3.org/2000/svg"
   xmlns="http://www.w3.org/2000/svg"
   viewBox="0 0 340.15732 340.15732"
   height="340.15732"
   width="340.15732"
   xml:space="preserve"
   id="svg833"
   version="1.1"><metadata
     id="metadata839"><rdf:RDF><cc:Work
         rdf:about=""><dc:format>image/svg+xml</dc:format><dc:type
           rdf:resource="http://purl.org/dc/dcmitype/StillImage" /><dc:title></dc:title></cc:Work></rdf:RDF></metadata><defs
     id="defs837"><clipPath
       id="clipPath985"
       clipPathUnits="userSpaceOnUse"><path
         id="path983"
         d="M 0,255.118 H 255.118 V 0 H 0 Z" /></clipPath></defs><g
     transform="matrix(1.3333333,0,0,-1.3333333,0,340.15733)"
     id="g841"><g
       style="stroke-width:0;stroke-miterlimit:4;stroke-dasharray:none"
       transform="translate(149.6636,78.8496)"
       id="g843"><path
         id="path845"
         style="fill:none;stroke:#fbd30b;stroke-width:0;stroke-linecap:round;stroke-linejoin:round;stroke-miterlimit:4;stroke-dasharray:none;stroke-opacity:1"
         d="m 0,0 26.922,-46.63 8.864,5.118 -21.783,37.731" /></g><g
       style="stroke-width:0;stroke-miterlimit:4;stroke-dasharray:none"
       transform="translate(163.6665,75.0684)"
       id="g847"><path
         id="path849"
         style="fill:none;stroke:#fbd30b;stroke-width:0;stroke-linecap:round;stroke-linejoin:round;stroke-miterlimit:4;stroke-dasharray:none;stroke-opacity:1"
         d="m 0,0 8.013,6.547 6.85,7.755" /></g><g
       style="stroke-width:0;stroke-miterlimit:4;stroke-dasharray:none"
       transform="translate(178.5298,89.3701)"
       id="g851"><path
         id="path853"
         style="fill:none;stroke:#fbd30b;stroke-width:0;stroke-linecap:round;stroke-linejoin:round;stroke-miterlimit:4;stroke-dasharray:none;stroke-opacity:1"
         d="M 0,0 H 34.405" /></g><g
       style="stroke-width:0;stroke-miterlimit:4;stroke-dasharray:none"
       transform="translate(212.9351,89.3701)"
       id="g855"><path
         id="path857"
         style="fill:none;stroke:#fbd30b;stroke-width:0;stroke-linecap:round;stroke-linejoin:round;stroke-miterlimit:4;stroke-dasharray:none;stroke-opacity:1"
         d="m 0,0 4.046,0.381 3.903,1.129 3.625,1.838 3.218,2.482 2.698,3.038 2.084,3.489 1.396,3.817 0.66,4.01 -0.101,4.062 -0.857,3.972 -1.583,3.743 -2.253,3.382 -2.845,2.901" /></g><g
       style="stroke-width:0;stroke-miterlimit:4;stroke-dasharray:none"
       transform="translate(226.9263,127.6143)"
       id="g859"><path
         id="path861"
         style="fill:none;stroke:#fbd30b;stroke-width:0;stroke-linecap:round;stroke-linejoin:round;stroke-miterlimit:4;stroke-dasharray:none;stroke-opacity:1"
         d="m 0,0 2.845,2.901 2.253,3.382 1.583,3.742 0.857,3.973 0.101,4.063 -0.66,4.009 -1.396,3.817 -2.084,3.489 -2.698,3.038 -3.218,2.482 -3.625,1.837 -3.903,1.13 -4.046,0.381" /></g><g
       style="stroke-width:0;stroke-miterlimit:4;stroke-dasharray:none"
       transform="translate(212.9351,165.8584)"
       id="g863"><path
         id="path865"
         style="fill:none;stroke:#fbd30b;stroke-width:0;stroke-linecap:round;stroke-linejoin:round;stroke-miterlimit:4;stroke-dasharray:none;stroke-opacity:1"
         d="M 0,0 H -34.405" /></g><g
       style="stroke-width:0;stroke-miterlimit:4;stroke-dasharray:none"
       transform="translate(178.5298,165.8584)"
       id="g867"><path
         id="path869"
         style="fill:none;stroke:#fbd30b;stroke-width:0;stroke-linecap:round;stroke-linejoin:round;stroke-miterlimit:4;stroke-dasharray:none;stroke-opacity:1"
         d="M 0,0 -4.492,5.363" /></g><g
       style="stroke-width:0;stroke-miterlimit:4;stroke-dasharray:none"
       transform="translate(174.0376,171.2217)"
       id="g871"><path
         id="path873"
         style="fill:none;stroke:#fbd30b;stroke-width:0;stroke-linecap:round;stroke-linejoin:round;stroke-miterlimit:4;stroke-dasharray:none;stroke-opacity:1"
         d="m 0,0 4.801,1.682 4.396,2.558 3.833,3.343 3.134,4.007 2.319,4.527 1.422,4.884 0.475,5.064 -0.491,5.063 -1.44,4.879 -2.335,4.518 -3.147,3.996 -3.845,3.331 -4.405,2.543 -4.806,1.665 -5.035,0.727 -5.081,-0.237 -4.944,-1.194 -4.63,-2.105 -4.15,-2.942 -3.517,-3.674 -2.761,-4.273 -1.904,-4.716 -0.978,-4.993 -0.017,-5.086 0.943,-4.998" /></g><g
       style="stroke-width:0;stroke-miterlimit:4;stroke-dasharray:none"
       transform="translate(141.8745,189.791)"
       id="g875"><path
         id="path877"
         style="fill:none;stroke:#fbd30b;stroke-width:0;stroke-linecap:round;stroke-linejoin:round;stroke-miterlimit:4;stroke-dasharray:none;stroke-opacity:1"
         d="M 0,0 -10.052,1.506 -20.215,1.397" /></g><g
       style="stroke-width:0;stroke-miterlimit:4;stroke-dasharray:none"
       transform="translate(121.6592,191.1885)"
       id="g879"><path
         id="path881"
         style="fill:none;stroke:#fbd30b;stroke-width:0;stroke-linecap:round;stroke-linejoin:round;stroke-miterlimit:4;stroke-dasharray:none;stroke-opacity:1"
         d="M 0,0 -11.23,19.452" /></g><g
       style="stroke-width:0;stroke-miterlimit:4;stroke-dasharray:none"
       transform="translate(110.4287,210.6406)"
       id="g883"><path
         id="path885"
         style="fill:none;stroke:#fbd30b;stroke-width:0;stroke-linecap:round;stroke-linejoin:round;stroke-miterlimit:4;stroke-dasharray:none;stroke-opacity:1"
         d="m 0,0 -3.06,4.271 -3.835,3.59 -4.461,2.775 -4.916,1.85 -5.184,0.856 -5.251,-0.172 -5.116,-1.192 -4.785,-2.169 -4.271,-3.06 -3.591,-3.835 -2.774,-4.461 -1.851,-4.917 -0.856,-5.183 0.172,-5.25 1.193,-5.118 2.169,-4.785" /></g><g
       style="stroke-width:0;stroke-miterlimit:4;stroke-dasharray:none"
       transform="translate(64.0112,183.8408)"
       id="g887"><path
         id="path889"
         style="fill:none;stroke:#fbd30b;stroke-width:0;stroke-linecap:round;stroke-linejoin:round;stroke-miterlimit:4;stroke-dasharray:none;stroke-opacity:1"
         d="M 0,0 11.23,-19.451" /></g><g
       style="stroke-width:0;stroke-miterlimit:4;stroke-dasharray:none"
       transform="translate(75.2417,164.3896)"
       id="g891"><path
         id="path893"
         style="fill:none;stroke:#fbd30b;stroke-width:0;stroke-linecap:round;stroke-linejoin:round;stroke-miterlimit:4;stroke-dasharray:none;stroke-opacity:1"
         d="m 0,0 -5.176,-8.748 -3.721,-9.458" /></g><g
       style="stroke-width:0;stroke-miterlimit:4;stroke-dasharray:none"
       transform="translate(66.3442,146.1836)"
       id="g895"><path
         id="path897"
         style="fill:none;stroke:#fbd30b;stroke-width:0;stroke-linecap:round;stroke-linejoin:round;stroke-miterlimit:4;stroke-dasharray:none;stroke-opacity:1"
         d="m 0,0 -3.856,3.316 -4.415,2.529 -4.811,1.648 -5.037,0.71 -5.08,-0.255 -4.941,-1.21 -4.623,-2.122 -4.138,-2.957 -3.506,-3.685 -2.746,-4.282 -1.888,-4.723 -0.96,-4.995 v -5.086 l 0.96,-4.995 1.888,-4.724 2.746,-4.281 3.506,-3.686 4.138,-2.957 4.623,-2.122 4.941,-1.21 5.08,-0.255 5.037,0.71 4.811,1.649 4.415,2.528 3.856,3.316" /></g><g
       style="stroke-width:0;stroke-miterlimit:4;stroke-dasharray:none"
       transform="translate(66.3442,109.0449)"
       id="g899"><path
         id="path901"
         style="fill:none;stroke:#fbd30b;stroke-width:0;stroke-linecap:round;stroke-linejoin:round;stroke-miterlimit:4;stroke-dasharray:none;stroke-opacity:1"
         d="M 0,0 2.399,-6.572" /></g><g
       style="stroke-width:0;stroke-miterlimit:4;stroke-dasharray:none"
       transform="translate(68.7432,102.4727)"
       id="g903"><path
         id="path905"
         style="fill:none;stroke:#fbd30b;stroke-width:0;stroke-linecap:round;stroke-linejoin:round;stroke-miterlimit:4;stroke-dasharray:none;stroke-opacity:1"
         d="M 0,0 -17.203,-29.796" /></g><g
       style="stroke-width:0;stroke-miterlimit:4;stroke-dasharray:none"
       transform="translate(51.5405,72.6768)"
       id="g907"><path
         id="path909"
         style="fill:none;stroke:#fbd30b;stroke-width:0;stroke-linecap:round;stroke-linejoin:round;stroke-miterlimit:4;stroke-dasharray:none;stroke-opacity:1"
         d="m 0,0 -1.693,-3.694 -0.974,-3.945 -0.221,-4.058 0.541,-4.028 1.282,-3.855 1.98,-3.55 2.606,-3.117 3.144,-2.576 3.568,-1.945 3.869,-1.244 4.032,-0.5 4.055,0.261 3.936,1.013" /></g><g
       style="stroke-width:0;stroke-miterlimit:4;stroke-dasharray:none"
       transform="translate(77.6655,41.4385)"
       id="g911"><path
         id="path913"
         style="fill:none;stroke:#fbd30b;stroke-width:0;stroke-linecap:round;stroke-linejoin:round;stroke-miterlimit:4;stroke-dasharray:none;stroke-opacity:1"
         d="m 0,0 1.09,-3.914 1.802,-3.643 2.45,-3.242 3.012,-2.728 3.468,-2.119 3.802,-1.433 4.003,-0.699 4.063,0.06 3.981,0.818 3.759,1.546 3.403,2.219 2.93,2.817 2.353,3.312" /></g><g
       style="stroke-width:0;stroke-miterlimit:4;stroke-dasharray:none"
       transform="translate(117.7813,34.4326)"
       id="g915"><path
         id="path917"
         style="fill:none;stroke:#fbd30b;stroke-width:0;stroke-linecap:round;stroke-linejoin:round;stroke-miterlimit:4;stroke-dasharray:none;stroke-opacity:1"
         d="M 0,0 15.958,27.642 7.094,32.76 -8.865,5.119" /></g><g
       style="stroke-width:0;stroke-miterlimit:4;stroke-dasharray:none"
       transform="translate(108.916,39.5518)"
       id="g919"><path
         id="path921"
         style="fill:none;stroke:#fbd30b;stroke-width:0;stroke-linecap:round;stroke-linejoin:round;stroke-miterlimit:4;stroke-dasharray:none;stroke-opacity:1"
         d="m 0,0 -1.307,-1.824 -1.637,-1.533 -1.906,-1.186 -2.099,-0.79 -2.214,-0.365 -2.242,0.073 -2.185,0.51 -2.044,0.926 -1.824,1.306 -1.533,1.638 -1.185,1.905 -0.79,2.1 -0.366,2.214 0.074,2.242 0.509,2.184 0.926,2.044" /></g><g
       style="stroke-width:0;stroke-miterlimit:4;stroke-dasharray:none"
       transform="translate(89.0933,50.9961)"
       id="g923"><path
         id="path925"
         style="fill:none;stroke:#fbd30b;stroke-width:0;stroke-linecap:round;stroke-linejoin:round;stroke-miterlimit:4;stroke-dasharray:none;stroke-opacity:1"
         d="M 0,0 15.959,27.642 7.094,32.76 -8.865,5.118" /></g><g
       style="stroke-width:0;stroke-miterlimit:4;stroke-dasharray:none"
       transform="translate(80.2285,56.1143)"
       id="g927"><path
         id="path929"
         style="fill:none;stroke:#fbd30b;stroke-width:0;stroke-linecap:round;stroke-linejoin:round;stroke-miterlimit:4;stroke-dasharray:none;stroke-opacity:1"
         d="m 0,0 -1.307,-1.824 -1.637,-1.533 -1.906,-1.185 -2.1,-0.79 -2.213,-0.366 -2.242,0.073 -2.185,0.51 -2.044,0.926 -1.824,1.306 -1.533,1.638 -1.185,1.905 -0.79,2.1 -0.366,2.214 0.074,2.242 0.509,2.185 0.926,2.043" /></g><g
       style="stroke-width:0;stroke-miterlimit:4;stroke-dasharray:none"
       transform="translate(60.4058,67.5586)"
       id="g931"><path
         id="path933"
         style="fill:none;stroke:#fbd30b;stroke-width:0;stroke-linecap:round;stroke-linejoin:round;stroke-miterlimit:4;stroke-dasharray:none;stroke-opacity:1"
         d="M 0,0 19.908,34.483" /></g><g
       style="stroke-width:0;stroke-miterlimit:4;stroke-dasharray:none"
       transform="translate(80.314,102.042)"
       id="g935"><path
         id="path937"
         style="fill:none;stroke:#fbd30b;stroke-width:0;stroke-linecap:round;stroke-linejoin:round;stroke-miterlimit:4;stroke-dasharray:none;stroke-opacity:1"
         d="m 0,0 -3.746,8.631 -2.179,9.153 -0.545,9.393 1.107,9.344 2.722,9.006 4.257,8.392 5.657,7.518" /></g><g
       style="stroke-width:0;stroke-miterlimit:4;stroke-dasharray:none"
       transform="translate(87.5874,163.4785)"
       id="g939"><path
         id="path941"
         style="fill:none;stroke:#fbd30b;stroke-width:0;stroke-linecap:round;stroke-linejoin:round;stroke-miterlimit:4;stroke-dasharray:none;stroke-opacity:1"
         d="M 0,0 -14.711,25.48" /></g><g
       style="stroke-width:0;stroke-miterlimit:4;stroke-dasharray:none"
       transform="translate(72.876,188.959)"
       id="g943"><path
         id="path945"
         style="fill:none;stroke:#fbd30b;stroke-width:0;stroke-linecap:round;stroke-linejoin:round;stroke-miterlimit:4;stroke-dasharray:none;stroke-opacity:1"
         d="m 0,0 -1.34,2.958 -0.737,3.162 -0.107,3.245 0.529,3.203 1.144,3.039 1.715,2.757 2.219,2.37 2.64,1.892 2.957,1.34 3.162,0.737 3.245,0.107 3.204,-0.53 3.038,-1.143 2.758,-1.715 2.369,-2.22 1.892,-2.639" /></g><g
       style="stroke-width:0;stroke-miterlimit:4;stroke-dasharray:none"
       transform="translate(101.564,205.5225)"
       id="g947"><path
         id="path949"
         style="fill:none;stroke:#fbd30b;stroke-width:0;stroke-linecap:round;stroke-linejoin:round;stroke-miterlimit:4;stroke-dasharray:none;stroke-opacity:1"
         d="M 0,0 14.711,-25.481" /></g><g
       style="stroke-width:0;stroke-miterlimit:4;stroke-dasharray:none"
       transform="translate(116.2749,180.041)"
       id="g951"><path
         id="path953"
         style="fill:none;stroke:#fbd30b;stroke-width:0;stroke-linecap:round;stroke-linejoin:round;stroke-miterlimit:4;stroke-dasharray:none;stroke-opacity:1"
         d="m 0,0 9.34,1.142 9.395,-0.51 9.161,-2.146 8.645,-3.714 7.862,-5.168 6.838,-6.463 5.602,-7.56" /></g><g
       style="stroke-width:0;stroke-miterlimit:4;stroke-dasharray:none"
       transform="translate(173.1177,155.6221)"
       id="g955"><path
         id="path957"
         style="fill:none;stroke:#fbd30b;stroke-width:0;stroke-linecap:round;stroke-linejoin:round;stroke-miterlimit:4;stroke-dasharray:none;stroke-opacity:1"
         d="M 0,0 H 39.817" /></g><g
       style="stroke-width:0;stroke-miterlimit:4;stroke-dasharray:none"
       transform="translate(212.9351,155.6221)"
       id="g959"><path
         id="path961"
         style="fill:none;stroke:#fbd30b;stroke-width:0;stroke-linecap:round;stroke-linejoin:round;stroke-miterlimit:4;stroke-dasharray:none;stroke-opacity:1"
         d="m 0,0 2.232,-0.221 2.148,-0.651 1.978,-1.058 1.735,-1.423 1.423,-1.734 1.057,-1.978 0.652,-2.147 0.219,-2.233 -0.219,-2.233 -0.652,-2.147 L 9.516,-17.804 8.093,-19.538 6.358,-20.961 4.38,-22.019 2.232,-22.67 0,-22.89" /></g><g
       style="stroke-width:0;stroke-miterlimit:4;stroke-dasharray:none"
       transform="translate(212.9351,132.7324)"
       id="g963"><path
         id="path965"
         style="fill:none;stroke:#fbd30b;stroke-width:0;stroke-linecap:round;stroke-linejoin:round;stroke-miterlimit:4;stroke-dasharray:none;stroke-opacity:1"
         d="M 0,0 H -31.917 V -10.236 H 0" /></g><g
       style="stroke-width:0;stroke-miterlimit:4;stroke-dasharray:none"
       transform="translate(212.9351,122.4961)"
       id="g967"><path
         id="path969"
         style="fill:none;stroke:#fbd30b;stroke-width:0;stroke-linecap:round;stroke-linejoin:round;stroke-miterlimit:4;stroke-dasharray:none;stroke-opacity:1"
         d="m 0,0 2.232,-0.22 2.148,-0.651 1.978,-1.058 1.735,-1.424 1.423,-1.733 1.057,-1.979 0.652,-2.147 0.219,-2.232 -0.219,-2.234 -0.652,-2.146 L 9.516,-17.803 8.093,-19.537 6.358,-20.961 4.38,-22.019 2.232,-22.67 0,-22.89" /></g><g
       style="stroke-width:0;stroke-miterlimit:4;stroke-dasharray:none"
       transform="translate(212.9351,99.6064)"
       id="g971"><path
         id="path973"
         style="fill:none;stroke:#fbd30b;stroke-width:0;stroke-linecap:round;stroke-linejoin:round;stroke-miterlimit:4;stroke-dasharray:none;stroke-opacity:1"
         d="M 0,0 H -39.817" /></g><g
       style="stroke-width:0;stroke-miterlimit:4;stroke-dasharray:none"
       transform="translate(173.1177,99.6064)"
       id="g975"><path
         id="path977"
         style="fill:none;stroke:#fbd30b;stroke-width:0;stroke-linecap:round;stroke-linejoin:round;stroke-miterlimit:4;stroke-dasharray:none;stroke-opacity:1"
         d="m 0,0 -4.638,-6.442 -5.539,-5.688 -6.318,-4.807 -6.959,-3.82" /></g><g
       style="stroke-width:0;stroke-miterlimit:4;stroke-dasharray:none"
       id="g979"><g
         style="stroke-width:0;stroke-miterlimit:4;stroke-dasharray:none"
         clip-path="url(#clipPath985)"
         id="g981"><g
           style="stroke-width:0;stroke-miterlimit:4;stroke-dasharray:none"
           transform="translate(63.584,127.6143)"
           id="g987"><path
             id="path989"
             style="fill:none;stroke:#fbd30b;stroke-width:0;stroke-linecap:round;stroke-linejoin:round;stroke-miterlimit:4;stroke-dasharray:none;stroke-opacity:1"
             d="m 0,0 c 0,9.147 -7.416,16.563 -16.563,16.563 -9.147,0 -16.563,-7.416 -16.563,-16.563 0,-9.147 7.416,-16.563 16.563,-16.563 C -7.416,-16.563 0,-9.147 0,0 Z" /></g><g
           style="stroke-width:0;stroke-miterlimit:4;stroke-dasharray:none"
           transform="translate(184.1812,197.2412)"
           id="g991"><path
             id="path993"
             style="fill:none;stroke:#fbd30b;stroke-width:0;stroke-linecap:round;stroke-linejoin:round;stroke-miterlimit:4;stroke-dasharray:none;stroke-opacity:1"
             d="m 0,0 c 0,9.146 -7.416,16.563 -16.563,16.563 -9.148,0 -16.563,-7.417 -16.563,-16.563 0,-9.147 7.415,-16.563 16.563,-16.563 C -7.416,-16.563 0,-9.147 0,0 Z" /></g></g></g><path
       transform="matrix(0.75000002,0,0,-0.75000002,0,255.118)"
       id="path1027"
       d="m 122.96009,306.28169 c -8.73282,-3.23521 -15.25399,-10.12253 -17.8448,-18.84674 -0.94278,-3.17467 -1.00657,-3.23414 -3.01608,-2.8115 -1.12912,0.23747 -4.376595,0.57889 -7.216618,0.75872 -20.188002,1.2783 -34.948431,-19.96427 -26.848552,-38.63927 0.658185,-1.5175 6.446327,-11.83615 12.86254,-22.93033 L 92.562422,203.64133 90.821551,198.801 c -0.957478,-2.66218 -2.060549,-4.84033 -2.45127,-4.84033 -0.39072,0 -1.263717,0.62531 -1.939993,1.38957 -2.132619,2.4101 -8.564586,6.22084 -13.047677,7.73035 -6.227542,2.09689 -14.889506,2.08457 -21.346678,-0.0304 -10.308839,-3.37645 -18.205137,-11.01707 -22.067824,-21.35325 -1.326089,-3.54849 -1.567878,-5.34019 -1.567878,-11.61828 0,-6.20082 0.250605,-8.10285 1.522292,-11.55382 4.110274,-11.15401 13.143918,-19.35558 24.618831,-22.35122 5.081712,-1.32663 14.108401,-0.97676 19.041064,0.73802 3.977376,1.38269 8.787477,4.17685 12.160278,7.06384 1.402054,1.20011 2.766931,2.04744 3.033058,1.88296 0.266127,-0.16447 1.581666,-3.13284 2.923423,-6.59638 1.34175,-3.46354 3.986592,-8.84905 5.877415,-11.96781 1.89083,-3.11876 3.437868,-5.9296 3.437868,-6.24632 0,-0.31672 -3.08098,-5.8978 -6.846618,-12.40241 C 82.753541,88.928946 81.703061,86.276056 81.689437,77.132447 c -0.0092,-6.182843 0.766335,-9.482769 3.640701,-15.491035 5.797298,-12.118055 19.438992,-20.08356 32.789002,-19.145793 8.5344,0.599495 15.7396,3.704361 21.85735,9.418773 3.93325,3.673947 6.12638,6.942056 14.86561,22.152121 l 6.95364,12.102371 8.49832,0.0342 c 4.67407,0.01881 10.82196,0.423125 13.66198,0.898476 2.84003,0.475352 5.35962,0.677804 5.5991,0.449894 0.23948,-0.227912 0.17951,-1.721439 -0.13326,-3.318952 -1.4874,-7.597189 -0.441,-15.234265 3.07803,-22.464651 4.03809,-8.296879 10.62801,-14.145398 19.65417,-17.442973 6.42113,-2.345865 16.24873,-2.431437 22.14783,-0.192848 10.53732,3.998704 18.11638,11.190083 21.59667,20.491981 6.87951,18.387168 -2.27017,38.461829 -20.62848,45.259439 -1.95252,0.72296 -3.55003,1.63343 -3.55003,2.02325 0,0.38983 1.27784,2.31017 2.83966,4.26744 l 2.83965,3.55865 h 24.02019 c 13.36161,0 25.56296,0.28793 27.49696,0.64887 14.68306,2.7403 25.23918,17.69613 22.59999,32.01951 -1.00827,5.47207 -3.45544,10.52773 -7.00911,14.48026 l -2.87458,3.19723 2.93516,3.2646 c 7.91913,8.80798 9.55086,20.89199 4.23523,31.36463 -3.94451,7.77131 -12.50514,13.81936 -21.37607,15.1021 -2.23866,0.32372 -14.42514,0.59441 -27.08105,0.60155 l -23.01075,0.013 -4.42129,5.07307 c -2.43171,2.79018 -6.96705,7.16787 -10.07854,9.72819 -3.11149,2.56033 -5.54517,4.85214 -5.40818,5.09293 3.27003,5.74759 27.27819,47.31999 27.90259,48.31596 0.84212,1.34327 0.65198,1.53709 -4.32398,4.40721 -2.86266,1.65118 -5.28252,2.90688 -5.37745,2.79043 -1.74221,-2.13685 -34.50705,-60.13828 -34.22748,-60.59063 0.21809,-0.35287 1.76965,-1.3374 3.44791,-2.18784 7.66876,-3.88605 18.98348,-14.01679 23.97818,-21.46908 l 2.2475,-3.35335 28.72296,-0.19668 c 28.00659,-0.19177 28.78735,-0.23142 31.3048,-1.58985 13.08542,-7.06095 10.7369,-26.78733 -3.55405,-29.85219 -1.99359,-0.42755 -11.52805,-0.70489 -24.23249,-0.70489 h -20.94567 v -5.80914 -5.80914 h 20.24388 c 11.13414,0 21.80843,-0.29536 23.72065,-0.65634 9.84082,-1.85776 15.47547,-10.8677 12.79887,-20.46572 -1.10475,-3.96154 -6.21324,-9.2346 -10.04245,-10.36597 -1.9035,-0.56241 -10.44795,-0.78496 -30.13752,-0.78496 h -27.4808 l -3.03887,-4.03412 c -14.05258,-18.6549 -33.94809,-29.211421 -55.94271,-29.68312 -4.34443,-0.09317 -9.95585,0.07301 -12.46982,0.369282 l -4.57084,0.538684 -9.92749,-17.24168 c -5.46012,-9.482924 -11.14534,-18.59623 -12.63383,-20.25179 -1.48849,-1.655561 -4.40408,-3.86952 -6.4791,-4.919908 -3.43222,-1.737409 -4.35539,-1.909753 -10.22736,-1.9093 -5.79255,4.46e-4 -6.79974,0.182387 -9.81944,1.773813 -6.74864,3.55663 -10.310158,8.043864 -12.181243,15.347423 -1.141296,4.454904 -0.825956,8.780201 0.986966,13.537607 0.877819,2.303536 13.118877,24.051989 19.484967,34.618559 l 1.21871,2.02282 -3.55355,4.59922 c -15.275402,19.77039 -18.669823,48.60196 -8.4775,72.0063 2.00857,4.61221 2.14827,5.29909 1.37838,6.77732 -0.4712,0.90473 -6.551537,11.51019 -13.511872,23.5677 -6.960332,12.0575 -12.940435,22.94964 -13.289116,24.20474 -2.854724,10.27578 4.42944,20.02937 15.078905,20.19087 4.999751,0.0758 9.141173,-1.7322 12.194343,-5.32368 1.15471,-1.3583 6.70041,-10.48216 12.32378,-20.27524 5.62338,-9.79308 10.56115,-17.79256 10.97282,-17.7766 0.41167,0.0159 2.82204,1.25071 5.35637,2.74392 l 4.60787,2.71493 -10.60041,18.34099 c -5.83023,10.08754 -11.07099,19.77967 -11.64613,21.53806 -1.86467,5.70093 0.64173,13.4689 5.50633,17.06545 6.35879,4.70126 15.51746,4.08222 21.02046,-1.42077 1.10134,-1.10133 6.7933,-10.3369 12.64882,-20.52349 5.85552,-10.18659 10.83873,-18.52588 11.0738,-18.53176 0.31437,-0.008 8.68857,4.5576 10.07518,5.49281 0.25831,0.17422 -20.14155,35.36459 -22.42375,38.68165 -2.5867,3.75964 -5.89382,6.43257 -10.99265,8.88466 -3.66405,1.76208 -5.0131,2.04661 -10.65009,2.24631 -5.29397,0.18755 -7.09294,-0.008 -10.00463,-1.0865 z M 72.10898,190.89697 c 4.499382,-2.01447 9.062088,-6.60756 11.233098,-11.30791 1.631423,-3.53211 1.852554,-4.73409 1.809024,-9.83313 -0.06006,-7.03498 -1.359048,-10.39704 -5.887666,-15.2385 -4.83829,-5.17253 -9.519176,-7.12925 -16.998077,-7.10562 -14.105239,0.0446 -24.760291,13.14282 -21.913037,26.93767 1.76494,8.55107 6.787434,14.25247 15.379378,17.45824 3.507943,1.30886 12.541769,0.80648 16.37728,-0.91075 z M 231.84092,98.331971 c 4.72638,-1.768365 9.92273,-6.603885 12.30115,-11.446961 1.56165,-3.179914 1.77812,-4.367184 1.77812,-9.752563 0,-5.406276 -0.21342,-6.566467 -1.80357,-9.804591 -2.34755,-4.780468 -7.68777,-9.675041 -12.56007,-11.51193 -5.22047,-1.96815 -13.24451,-1.595735 -17.9787,0.834435 -6.61063,3.393385 -10.40482,8.135218 -12.23942,15.296387 -2.81693,10.99555 3.53388,22.802985 14.41464,26.799726 3.85959,1.417706 11.73301,1.21485 16.08785,-0.414503 z"
       style="fill:none;stroke-width:0;stroke-linejoin:round;stroke-miterlimit:4;stroke-dasharray:none" /><path
       transform="matrix(0.75000002,0,0,-0.75000002,0,255.118)"
       id="path1029"
       d="m 122.96009,306.28169 c -8.73282,-3.23521 -15.25399,-10.12253 -17.8448,-18.84674 -0.94278,-3.17467 -1.00657,-3.23414 -3.01608,-2.8115 -1.12912,0.23747 -4.376595,0.57889 -7.216618,0.75872 -20.188002,1.2783 -34.948431,-19.96427 -26.848552,-38.63927 0.658185,-1.5175 6.446327,-11.83615 12.86254,-22.93033 L 92.562422,203.64133 90.821551,198.801 c -0.957478,-2.66218 -2.060549,-4.84033 -2.45127,-4.84033 -0.39072,0 -1.263717,0.62531 -1.939993,1.38957 -2.132619,2.4101 -8.564586,6.22084 -13.047677,7.73035 -6.227542,2.09689 -14.889506,2.08457 -21.346678,-0.0304 -10.308839,-3.37645 -18.205137,-11.01707 -22.067824,-21.35325 -1.326089,-3.54849 -1.567878,-5.34019 -1.567878,-11.61828 0,-6.20082 0.250605,-8.10285 1.522292,-11.55382 4.110274,-11.15401 13.143918,-19.35558 24.618831,-22.35122 5.081712,-1.32663 14.108401,-0.97676 19.041064,0.73802 3.977376,1.38269 8.787477,4.17685 12.160278,7.06384 1.402054,1.20011 2.766931,2.04744 3.033058,1.88296 0.266127,-0.16447 1.581666,-3.13284 2.923423,-6.59638 1.34175,-3.46354 3.986592,-8.84905 5.877415,-11.96781 1.89083,-3.11876 3.437868,-5.9296 3.437868,-6.24632 0,-0.31672 -3.08098,-5.8978 -6.846618,-12.40241 C 82.753541,88.928946 81.703061,86.276056 81.689437,77.132447 c -0.0092,-6.182843 0.766335,-9.482769 3.640701,-15.491035 5.797298,-12.118055 19.438992,-20.08356 32.789002,-19.145793 8.5344,0.599495 15.7396,3.704361 21.85735,9.418773 3.93325,3.673947 6.12638,6.942056 14.86561,22.152121 l 6.95364,12.102371 8.49832,0.0342 c 4.67407,0.01881 10.82196,0.423125 13.66198,0.898476 2.84003,0.475352 5.35962,0.677804 5.5991,0.449894 0.23948,-0.227912 0.17951,-1.721439 -0.13326,-3.318952 -1.4874,-7.597189 -0.441,-15.234265 3.07803,-22.464651 4.03809,-8.296879 10.62801,-14.145398 19.65417,-17.442973 6.42113,-2.345865 16.24873,-2.431437 22.14783,-0.192848 10.53732,3.998704 18.11638,11.190083 21.59667,20.491981 6.87951,18.387168 -2.27017,38.461829 -20.62848,45.259439 -1.95252,0.72296 -3.55003,1.63343 -3.55003,2.02325 0,0.38983 1.27784,2.31017 2.83966,4.26744 l 2.83965,3.55865 h 24.02019 c 13.36161,0 25.56296,0.28793 27.49696,0.64887 14.68306,2.7403 25.23918,17.69613 22.59999,32.01951 -1.00827,5.47207 -3.45544,10.52773 -7.00911,14.48026 l -2.87458,3.19723 2.93516,3.2646 c 7.91913,8.80798 9.55086,20.89199 4.23523,31.36463 -3.94451,7.77131 -12.50514,13.81936 -21.37607,15.1021 -2.23866,0.32372 -14.42514,0.59441 -27.08105,0.60155 l -23.01075,0.013 -4.42129,5.07307 c -2.43171,2.79018 -6.96705,7.16787 -10.07854,9.72819 -3.11149,2.56033 -5.54517,4.85214 -5.40818,5.09293 3.27003,5.74759 27.27819,47.31999 27.90259,48.31596 0.84212,1.34327 0.65198,1.53709 -4.32398,4.40721 -2.86266,1.65118 -5.28252,2.90688 -5.37745,2.79043 -1.74221,-2.13685 -34.50705,-60.13828 -34.22748,-60.59063 0.21809,-0.35287 1.76965,-1.3374 3.44791,-2.18784 7.66876,-3.88605 18.98348,-14.01679 23.97818,-21.46908 l 2.2475,-3.35335 28.72296,-0.19668 c 28.00659,-0.19177 28.78735,-0.23142 31.3048,-1.58985 13.08542,-7.06095 10.7369,-26.78733 -3.55405,-29.85219 -1.99359,-0.42755 -11.52805,-0.70489 -24.23249,-0.70489 h -20.94567 v -5.80914 -5.80914 h 20.24388 c 11.13414,0 21.80843,-0.29536 23.72065,-0.65634 9.84082,-1.85776 15.47547,-10.8677 12.79887,-20.46572 -1.10475,-3.96154 -6.21324,-9.2346 -10.04245,-10.36597 -1.9035,-0.56241 -10.44795,-0.78496 -30.13752,-0.78496 h -27.4808 l -3.03887,-4.03412 c -14.05258,-18.6549 -33.94809,-29.211421 -55.94271,-29.68312 -4.34443,-0.09317 -9.95585,0.07301 -12.46982,0.369282 l -4.57084,0.538684 -9.92749,-17.24168 c -5.46012,-9.482924 -11.14534,-18.59623 -12.63383,-20.25179 -1.48849,-1.655561 -4.40408,-3.86952 -6.4791,-4.919908 -3.43222,-1.737409 -4.35539,-1.909753 -10.22736,-1.9093 -5.79255,4.46e-4 -6.79974,0.182387 -9.81944,1.773813 -6.74864,3.55663 -10.310158,8.043864 -12.181243,15.347423 -1.141296,4.454904 -0.825956,8.780201 0.986966,13.537607 0.877819,2.303536 13.118877,24.051989 19.484967,34.618559 l 1.21871,2.02282 -3.55355,4.59922 c -15.275402,19.77039 -18.669823,48.60196 -8.4775,72.0063 2.00857,4.61221 2.14827,5.29909 1.37838,6.77732 -0.4712,0.90473 -6.551537,11.51019 -13.511872,23.5677 -6.960332,12.0575 -12.940435,22.94964 -13.289116,24.20474 -2.854724,10.27578 4.42944,20.02937 15.078905,20.19087 4.999751,0.0758 9.141173,-1.7322 12.194343,-5.32368 1.15471,-1.3583 6.70041,-10.48216 12.32378,-20.27524 5.62338,-9.79308 10.56115,-17.79256 10.97282,-17.7766 0.41167,0.0159 2.82204,1.25071 5.35637,2.74392 l 4.60787,2.71493 -10.60041,18.34099 c -5.83023,10.08754 -11.07099,19.77967 -11.64613,21.53806 -1.86467,5.70093 0.64173,13.4689 5.50633,17.06545 6.35879,4.70126 15.51746,4.08222 21.02046,-1.42077 1.10134,-1.10133 6.7933,-10.3369 12.64882,-20.52349 5.85552,-10.18659 10.83873,-18.52588 11.0738,-18.53176 0.31437,-0.008 8.68857,4.5576 10.07518,5.49281 0.25831,0.17422 -20.14155,35.36459 -22.42375,38.68165 -2.5867,3.75964 -5.89382,6.43257 -10.99265,8.88466 -3.66405,1.76208 -5.0131,2.04661 -10.65009,2.24631 -5.29397,0.18755 -7.09294,-0.008 -10.00463,-1.0865 z M 72.10898,190.89697 c 4.499382,-2.01447 9.062088,-6.60756 11.233098,-11.30791 1.631423,-3.53211 1.852554,-4.73409 1.809024,-9.83313 -0.06006,-7.03498 -1.359048,-10.39704 -5.887666,-15.2385 -4.83829,-5.17253 -9.519176,-7.12925 -16.998077,-7.10562 -14.105239,0.0446 -24.760291,13.14282 -21.913037,26.93767 1.76494,8.55107 6.787434,14.25247 15.379378,17.45824 3.507943,1.30886 12.541769,0.80648 16.37728,-0.91075 z M 231.84092,98.331971 c 4.72638,-1.768365 9.92273,-6.603885 12.30115,-11.446961 1.56165,-3.179914 1.77812,-4.367184 1.77812,-9.752563 0,-5.406276 -0.21342,-6.566467 -1.80357,-9.804591 -2.34755,-4.780468 -7.68777,-9.675041 -12.56007,-11.51193 -5.22047,-1.96815 -13.24451,-1.595735 -17.9787,0.834435 -6.61063,3.393385 -10.40482,8.135218 -12.23942,15.296387 -2.81693,10.99555 3.53388,22.802985 14.41464,26.799726 3.85959,1.417706 11.73301,1.21485 16.08785,-0.414503 z"
       style="fill:none;stroke-width:0;stroke-linejoin:round;stroke-miterlimit:4;stroke-dasharray:none" /><path
       transform="matrix(0.75000002,0,0,-0.75000002,0,255.118)"
       id="path1031"
       d="m 122.96009,306.28169 c -8.73282,-3.23521 -15.25399,-10.12253 -17.8448,-18.84674 -0.94278,-3.17467 -1.00657,-3.23414 -3.01608,-2.8115 -1.12912,0.23747 -4.376595,0.57889 -7.216618,0.75872 -20.188002,1.2783 -34.948431,-19.96427 -26.848552,-38.63927 0.658185,-1.5175 6.446327,-11.83615 12.86254,-22.93033 L 92.562422,203.64133 90.821551,198.801 c -0.957478,-2.66218 -2.060549,-4.84033 -2.45127,-4.84033 -0.39072,0 -1.263717,0.62531 -1.939993,1.38957 -2.132619,2.4101 -8.564586,6.22084 -13.047677,7.73035 -6.227542,2.09689 -14.889506,2.08457 -21.346678,-0.0304 -10.308839,-3.37645 -18.205137,-11.01707 -22.067824,-21.35325 -1.326089,-3.54849 -1.567878,-5.34019 -1.567878,-11.61828 0,-6.20082 0.250605,-8.10285 1.522292,-11.55382 4.110274,-11.15401 13.143918,-19.35558 24.618831,-22.35122 5.081712,-1.32663 14.108401,-0.97676 19.041064,0.73802 3.977376,1.38269 8.787477,4.17685 12.160278,7.06384 1.402054,1.20011 2.766931,2.04744 3.033058,1.88296 0.266127,-0.16447 1.581666,-3.13284 2.923423,-6.59638 1.34175,-3.46354 3.986592,-8.84905 5.877415,-11.96781 1.89083,-3.11876 3.437868,-5.9296 3.437868,-6.24632 0,-0.31672 -3.08098,-5.8978 -6.846618,-12.40241 C 82.753541,88.928946 81.703061,86.276056 81.689437,77.132447 c -0.0092,-6.182843 0.766335,-9.482769 3.640701,-15.491035 5.797298,-12.118055 19.438992,-20.08356 32.789002,-19.145793 8.5344,0.599495 15.7396,3.704361 21.85735,9.418773 3.93325,3.673947 6.12638,6.942056 14.86561,22.152121 l 6.95364,12.102371 8.49832,0.0342 c 4.67407,0.01881 10.82196,0.423125 13.66198,0.898476 2.84003,0.475352 5.35962,0.677804 5.5991,0.449894 0.23948,-0.227912 0.17951,-1.721439 -0.13326,-3.318952 -1.4874,-7.597189 -0.441,-15.234265 3.07803,-22.464651 4.03809,-8.296879 10.62801,-14.145398 19.65417,-17.442973 6.42113,-2.345865 16.24873,-2.431437 22.14783,-0.192848 10.53732,3.998704 18.11638,11.190083 21.59667,20.491981 6.87951,18.387168 -2.27017,38.461829 -20.62848,45.259439 -1.95252,0.72296 -3.55003,1.63343 -3.55003,2.02325 0,0.38983 1.27784,2.31017 2.83966,4.26744 l 2.83965,3.55865 h 24.02019 c 13.36161,0 25.56296,0.28793 27.49696,0.64887 14.68306,2.7403 25.23918,17.69613 22.59999,32.01951 -1.00827,5.47207 -3.45544,10.52773 -7.00911,14.48026 l -2.87458,3.19723 2.93516,3.2646 c 7.91913,8.80798 9.55086,20.89199 4.23523,31.36463 -3.94451,7.77131 -12.50514,13.81936 -21.37607,15.1021 -2.23866,0.32372 -14.42514,0.59441 -27.08105,0.60155 l -23.01075,0.013 -4.42129,5.07307 c -2.43171,2.79018 -6.96705,7.16787 -10.07854,9.72819 -3.11149,2.56033 -5.54517,4.85214 -5.40818,5.09293 3.27003,5.74759 27.27819,47.31999 27.90259,48.31596 0.84212,1.34327 0.65198,1.53709 -4.32398,4.40721 -2.86266,1.65118 -5.28252,2.90688 -5.37745,2.79043 -1.74221,-2.13685 -34.50705,-60.13828 -34.22748,-60.59063 0.21809,-0.35287 1.76965,-1.3374 3.44791,-2.18784 7.66876,-3.88605 18.98348,-14.01679 23.97818,-21.46908 l 2.2475,-3.35335 28.72296,-0.19668 c 28.00659,-0.19177 28.78735,-0.23142 31.3048,-1.58985 13.08542,-7.06095 10.7369,-26.78733 -3.55405,-29.85219 -1.99359,-0.42755 -11.52805,-0.70489 -24.23249,-0.70489 h -20.94567 v -5.80914 -5.80914 h 20.24388 c 11.13414,0 21.80843,-0.29536 23.72065,-0.65634 9.84082,-1.85776 15.47547,-10.8677 12.79887,-20.46572 -1.10475,-3.96154 -6.21324,-9.2346 -10.04245,-10.36597 -1.9035,-0.56241 -10.44795,-0.78496 -30.13752,-0.78496 h -27.4808 l -3.03887,-4.03412 c -14.05258,-18.6549 -33.94809,-29.211421 -55.94271,-29.68312 -4.34443,-0.09317 -9.95585,0.07301 -12.46982,0.369282 l -4.57084,0.538684 -9.92749,-17.24168 c -5.46012,-9.482924 -11.14534,-18.59623 -12.63383,-20.25179 -1.48849,-1.655561 -4.40408,-3.86952 -6.4791,-4.919908 -3.43222,-1.737409 -4.35539,-1.909753 -10.22736,-1.9093 -5.79255,4.46e-4 -6.79974,0.182387 -9.81944,1.773813 -6.74864,3.55663 -10.310158,8.043864 -12.181243,15.347423 -1.141296,4.454904 -0.825956,8.780201 0.986966,13.537607 0.877819,2.303536 13.118877,24.051989 19.484967,34.618559 l 1.21871,2.02282 -3.55355,4.59922 c -15.275402,19.77039 -18.669823,48.60196 -8.4775,72.0063 2.00857,4.61221 2.14827,5.29909 1.37838,6.77732 -0.4712,0.90473 -6.551537,11.51019 -13.511872,23.5677 -6.960332,12.0575 -12.940435,22.94964 -13.289116,24.20474 -2.854724,10.27578 4.42944,20.02937 15.078905,20.19087 4.999751,0.0758 9.141173,-1.7322 12.194343,-5.32368 1.15471,-1.3583 6.70041,-10.48216 12.32378,-20.27524 5.62338,-9.79308 10.56115,-17.79256 10.97282,-17.7766 0.41167,0.0159 2.82204,1.25071 5.35637,2.74392 l 4.60787,2.71493 -10.60041,18.34099 c -5.83023,10.08754 -11.07099,19.77967 -11.64613,21.53806 -1.86467,5.70093 0.64173,13.4689 5.50633,17.06545 6.35879,4.70126 15.51746,4.08222 21.02046,-1.42077 1.10134,-1.10133 6.7933,-10.3369 12.64882,-20.52349 5.85552,-10.18659 10.83873,-18.52588 11.0738,-18.53176 0.31437,-0.008 8.68857,4.5576 10.07518,5.49281 0.25831,0.17422 -20.14155,35.36459 -22.42375,38.68165 -2.5867,3.75964 -5.89382,6.43257 -10.99265,8.88466 -3.66405,1.76208 -5.0131,2.04661 -10.65009,2.24631 -5.29397,0.18755 -7.09294,-0.008 -10.00463,-1.0865 z M 72.10898,190.89697 c 4.499382,-2.01447 9.062088,-6.60756 11.233098,-11.30791 1.631423,-3.53211 1.852554,-4.73409 1.809024,-9.83313 -0.06006,-7.03498 -1.359048,-10.39704 -5.887666,-15.2385 -4.83829,-5.17253 -9.519176,-7.12925 -16.998077,-7.10562 -14.105239,0.0446 -24.760291,13.14282 -21.913037,26.93767 1.76494,8.55107 6.787434,14.25247 15.379378,17.45824 3.507943,1.30886 12.541769,0.80648 16.37728,-0.91075 z M 231.84092,98.331971 c 4.72638,-1.768365 9.92273,-6.603885 12.30115,-11.446961 1.56165,-3.179914 1.77812,-4.367184 1.77812,-9.752563 0,-5.406276 -0.21342,-6.566467 -1.80357,-9.804591 -2.34755,-4.780468 -7.68777,-9.675041 -12.56007,-11.51193 -5.22047,-1.96815 -13.24451,-1.595735 -17.9787,0.834435 -6.61063,3.393385 -10.40482,8.135218 -12.23942,15.296387 -2.81693,10.99555 3.53388,22.802985 14.41464,26.799726 3.85959,1.417706 11.73301,1.21485 16.08785,-0.414503 z"
       style="fill:#fbd30b;stroke-width:0;stroke-linejoin:round;fill-opacity:1;stroke:none;stroke-opacity:1;stroke-miterlimit:4;stroke-dasharray:none" /></g></svg>
