<?xml version="1.0" encoding="utf-8"?>
<!-- Generator: Adobe Illustrator 14.0.0, SVG Export Plug-In . SVG Version: 6.00 Build 43363)  -->
<!DOCTYPE svg PUBLIC "-//W3C//DTD SVG 1.1//EN" "http://www.w3.org/Graphics/SVG/1.1/DTD/svg11.dtd">
<svg version="1.1" xmlns="http://www.w3.org/2000/svg" xmlns:xlink="http://www.w3.org/1999/xlink" x="0px" y="0px"
	 width="124.51px" height="124.51px" viewBox="0 0 124.51 124.51" enable-background="new 0 0 124.51 124.51" xml:space="preserve">
<g id="output-line-boundary">
</g>
<g id="output-line-logo">
	<g id="CIRCLE">
		<path fill="#FBD30B" d="M76.632,86.266c0-7.94-6.438-14.377-14.377-14.377c-7.94,0-14.377,6.437-14.377,14.377
			s6.437,14.378,14.377,14.378C70.195,100.644,76.632,94.206,76.632,86.266L76.632,86.266L76.632,86.266z"/>
	</g>
	<g id="CIRCLE_1_">
		<path fill="#FBD30B" d="M102.946,62.255c0-7.94-6.437-14.377-14.377-14.377s-14.377,6.437-14.377,14.377
			s6.437,14.377,14.377,14.377S102.946,70.195,102.946,62.255L102.946,62.255L102.946,62.255z"/>
	</g>
	<g id="CIRCLE_2_">
		<path fill="#FBD30B" d="M76.632,38.244c0-7.94-6.438-14.377-14.377-14.377c-7.94,0-14.377,6.437-14.377,14.377
			c0,7.94,6.437,14.377,14.377,14.377C70.195,52.621,76.632,46.184,76.632,38.244L76.632,38.244L76.632,38.244z"/>
	</g>
	<g id="CIRCLE_3_">
		<path fill="#FBD30B" d="M50.318,62.255c0-7.94-6.437-14.377-14.377-14.377c-7.94,0-14.377,6.437-14.377,14.377
			s6.437,14.377,14.377,14.377C43.881,76.632,50.318,70.195,50.318,62.255L50.318,62.255L50.318,62.255z"/>
	</g>
</g>
</svg>
