<?xml version="1.0" encoding="utf-8"?>
<!-- Generator: Adobe Illustrator 14.0.0, SVG Export Plug-In . SVG Version: 6.00 Build 43363)  -->
<!DOCTYPE svg PUBLIC "-//W3C//DTD SVG 1.1//EN" "http://www.w3.org/Graphics/SVG/1.1/DTD/svg11.dtd">
<svg version="1.1" xmlns="http://www.w3.org/2000/svg" xmlns:xlink="http://www.w3.org/1999/xlink" x="0px" y="0px"
	 width="124.51px" height="124.51px" viewBox="0 0 124.51 124.51" enable-background="new 0 0 124.51 124.51" xml:space="preserve">
<g id="output-line-logo">
	<g id="LWPOLYLINE">
		<g id="XMLID_1_">
			<g>
				<polygon fill="#FBD30B" points="97.715,32.439 97.855,33.85 97.715,35.25 97.305,36.6 96.645,37.839 95.745,38.93 72.425,62.26 
					95.745,85.579 96.645,86.67 97.305,87.909 97.715,89.26 97.855,90.659 97.715,92.069 97.305,93.42 96.645,94.659 95.745,95.75 
					94.655,96.64 93.415,97.31 92.065,97.72 90.665,97.85 89.265,97.72 87.915,97.31 86.675,96.64 85.585,95.75 62.255,72.42 
					38.925,95.75 37.835,96.64 36.595,97.31 35.245,97.72 33.845,97.85 32.445,97.72 31.095,97.31 29.855,96.64 28.765,95.75 
					27.865,94.659 27.205,93.42 26.795,92.069 26.655,90.659 26.795,89.26 27.205,87.909 27.865,86.67 28.765,85.579 52.085,62.26 
					28.765,38.93 27.865,37.839 27.205,36.6 26.795,35.25 26.655,33.85 26.795,32.439 27.205,31.1 27.865,29.85 28.765,28.76 
					29.855,27.87 31.095,27.209 32.445,26.8 33.845,26.66 35.245,26.8 36.595,27.209 37.835,27.87 38.925,28.76 62.255,52.089 
					85.585,28.76 86.675,27.87 87.915,27.209 89.265,26.8 90.665,26.66 92.065,26.8 93.415,27.209 94.655,27.87 95.745,28.76 
					96.645,29.85 97.305,31.1 				"/>
			</g>
			<g>
			</g>
		</g>
	</g>
</g>
<g id="output-line-boundary">
</g>
</svg>
