<?xml version="1.0" encoding="utf-8"?>
<!-- Generator: Adobe Illustrator 14.0.0, SVG Export Plug-In . SVG Version: 6.00 Build 43363)  -->
<!DOCTYPE svg PUBLIC "-//W3C//DTD SVG 1.1//EN" "http://www.w3.org/Graphics/SVG/1.1/DTD/svg11.dtd">
<svg version="1.1" xmlns="http://www.w3.org/2000/svg" xmlns:xlink="http://www.w3.org/1999/xlink" x="0px" y="0px"
	 width="124.51px" height="124.51px" viewBox="0 0 124.51 124.51" enable-background="new 0 0 124.51 124.51" xml:space="preserve">
<g id="output-line-boundary">
</g>
<g id="output-line-logo">
	<g id="LWPOLYLINE_1_">
		<polyline fill="#2F2B2F" points="53.703,22.078 22.078,22.078 22.078,53.703 27.726,53.703 27.726,27.726 53.703,27.726 
			53.703,22.078 		"/>
	</g>
	<g id="LWPOLYLINE_2_">
		<polyline fill="#2F2B2F" points="53.703,102.432 22.078,102.432 22.078,70.807 27.726,70.807 27.726,96.784 53.703,96.784 
			53.703,102.432 		"/>
	</g>
	<g id="LWPOLYLINE_3_">
		<polyline fill="#2F2B2F" points="70.807,22.078 102.431,22.078 102.431,53.703 96.784,53.703 96.784,27.726 70.807,27.726 
			70.807,22.078 		"/>
	</g>
	<g id="LWPOLYLINE_4_">
		<polyline fill="#2F2B2F" points="70.807,102.432 102.431,102.432 102.431,70.807 96.784,70.807 96.784,96.784 70.807,96.784 
			70.807,102.432 		"/>
	</g>
</g>
</svg>
