<?xml version="1.0" encoding="utf-8"?>
<!-- Generator: Adobe Illustrator 14.0.0, SVG Export Plug-In . SVG Version: 6.00 Build 43363)  -->
<!DOCTYPE svg PUBLIC "-//W3C//DTD SVG 1.1//EN" "http://www.w3.org/Graphics/SVG/1.1/DTD/svg11.dtd">
<svg version="1.1" xmlns="http://www.w3.org/2000/svg" xmlns:xlink="http://www.w3.org/1999/xlink" x="0px" y="0px"
	 width="124.51px" height="124.51px" viewBox="0 0 124.51 124.51" enable-background="new 0 0 124.51 124.51" xml:space="preserve">
<g id="output-line-boundary">
</g>
<g id="output-line-logo">
	<g id="CIRCLE">
		<path fill="#2F2B2F" d="M74.706,62.255c0-6.876-5.574-12.451-12.451-12.451s-12.451,5.575-12.451,12.451
			c0,6.877,5.575,12.451,12.451,12.451S74.706,69.132,74.706,62.255L74.706,62.255L74.706,62.255z"/>
	</g>
	<g id="LWPOLYLINE_1_">
		<g id="XMLID_1_">
			<g>
				<polygon fill="#2F2B2F" points="116.805,47.879 116.805,59.169 89.215,59.169 88.125,54.069 86.085,49.27 83.155,44.95 
					79.455,41.27 75.115,38.359 70.305,36.339 65.195,35.28 59.985,35.22 54.845,36.149 49.985,38.05 45.585,40.85 41.795,44.439 
					38.755,48.68 28.975,43.03 33.115,37.2 38.255,32.24 44.225,28.319 50.815,25.569 57.805,24.08 64.955,23.919 72.005,25.08 
					78.715,27.53 84.855,31.18 90.225,35.899 94.615,41.53 97.895,47.879 				"/>
			</g>
			<g>
			</g>
		</g>
	</g>
	<g id="LWPOLYLINE_2_">
		<g id="XMLID_2_">
			<g>
				<polygon fill="#2F2B2F" points="95.535,81.479 91.395,87.31 86.255,92.27 80.285,96.189 73.695,98.939 66.705,100.43 
					59.555,100.59 52.505,99.43 45.795,96.979 39.655,93.34 34.285,88.609 29.895,82.979 26.615,76.63 7.705,76.63 7.705,65.34 
					35.295,65.34 36.385,70.439 38.425,75.239 41.355,79.56 45.055,83.239 49.395,86.149 54.205,88.17 59.315,89.229 64.525,89.3 
					69.665,88.359 74.525,86.46 78.925,83.659 82.715,80.079 85.755,75.829 				"/>
			</g>
			<g>
			</g>
		</g>
	</g>
</g>
</svg>
