<?xml version="1.0" encoding="utf-8"?>
<!-- Generator: Adobe Illustrator 14.0.0, SVG Export Plug-In . SVG Version: 6.00 Build 43363)  -->
<!DOCTYPE svg PUBLIC "-//W3C//DTD SVG 1.1//EN" "http://www.w3.org/Graphics/SVG/1.1/DTD/svg11.dtd">
<svg version="1.1" xmlns="http://www.w3.org/2000/svg" xmlns:xlink="http://www.w3.org/1999/xlink" x="0px" y="0px"
	 width="124.51px" height="124.51px" viewBox="0 0 124.51 124.51" enable-background="new 0 0 124.51 124.51" xml:space="preserve">
<g id="output-line-boundary">
</g>
<g id="output-line-logo">
	<g id="CIRCLE">
		<g id="XMLID_1_">
			<g>
				<path fill="#FBD30B" d="M102.435,62.26c0-6.88-5.58-12.46-12.45-12.46c-6.88,0-12.46,5.58-12.46,12.46
					c0,6.87,5.58,12.45,12.46,12.45C96.855,74.71,102.435,69.13,102.435,62.26z M104.085,59.45l0.27,2.81l-0.27,2.8l-0.82,2.7
					l-1.33,2.479l-1.79,2.181l-2.18,1.79l-2.48,1.33l-2.7,0.819l-2.8,0.271h-55.46l-2.8-0.271l-2.7-0.819l-2.48-1.33l-2.18-1.79
					l-1.79-2.181l-1.33-2.479l-0.82-2.7l-0.27-2.8l0.27-2.81l0.82-2.7l1.33-2.48l1.79-2.18l2.18-1.79l2.48-1.33l2.7-0.82l2.8-0.27
					h55.46l2.8,0.27l2.7,0.82l2.48,1.33l2.18,1.79l1.79,2.18l1.33,2.48L104.085,59.45z"/>
			</g>
			<g>
			</g>
		</g>
	</g>
</g>
</svg>
