<?xml version="1.0" encoding="utf-8"?>
<!-- Generator: Adobe Illustrator 14.0.0, SVG Export Plug-In . SVG Version: 6.00 Build 43363)  -->
<!DOCTYPE svg PUBLIC "-//W3C//DTD SVG 1.1//EN" "http://www.w3.org/Graphics/SVG/1.1/DTD/svg11.dtd">
<svg version="1.1" xmlns="http://www.w3.org/2000/svg" xmlns:xlink="http://www.w3.org/1999/xlink" x="0px" y="0px"
	 width="124.51px" height="124.51px" viewBox="0 0 124.51 124.51" enable-background="new 0 0 124.51 124.51" xml:space="preserve">
<g id="output-line-boundary">
</g>
<g id="output-line-logo">
	<g id="CIRCLE">
		<path fill="#FBD30B" d="M74.706,62.255c0-6.876-5.574-12.451-12.451-12.451s-12.451,5.575-12.451,12.451
			c0,6.877,5.575,12.451,12.451,12.451S74.706,69.132,74.706,62.255L74.706,62.255L74.706,62.255z"/>
	</g>
	<g id="LINE">
		
			<line fill="none" stroke="#FBD30B" stroke-width="0.7087" stroke-linecap="round" stroke-linejoin="round" x1="88.761" y1="31.387" x2="92.441" y2="27.102"/>
	</g>
	<g id="LWPOLYLINE_6_">
		<g id="XMLID_1_">
			<g>
				<polygon fill="#FBD30B" points="107.905,54.31 108.585,62.26 107.905,70.199 105.865,77.899 102.535,85.149 98.015,91.71 
					92.445,97.409 88.765,93.119 93.665,88.119 97.625,82.359 100.555,76 102.345,69.229 102.945,62.26 102.345,55.28 
					100.555,48.51 97.625,42.149 93.665,36.39 88.765,31.39 92.445,27.1 98.015,32.8 102.535,39.359 105.865,46.609 				"/>
				<polygon fill="#FBD30B" points="96.775,56.25 97.295,62.26 96.775,68.26 95.235,74.09 92.715,79.569 89.305,84.529 
					85.085,88.84 81.405,84.56 84.945,80.939 87.815,76.779 89.925,72.18 91.215,67.29 91.645,62.26 91.215,57.22 89.925,52.33 
					87.815,47.729 84.945,43.569 81.405,39.959 85.085,35.669 89.305,39.979 92.715,44.939 95.235,50.419 				"/>
				<polygon fill="#FBD30B" points="85.645,58.189 86.005,62.26 85.645,66.329 84.605,70.27 82.895,73.989 80.585,77.35 
					77.725,80.27 74.045,75.989 76.225,73.76 77.985,71.199 79.285,68.369 80.085,65.359 80.355,62.26 80.085,59.149 79.285,56.14 
					77.985,53.31 76.225,50.75 74.045,48.52 77.725,44.24 80.585,47.16 82.895,50.52 84.605,54.24 				"/>
				<polygon fill="#FBD30B" points="46.785,44.24 50.465,48.52 48.285,50.75 46.515,53.31 45.225,56.14 44.425,59.149 44.155,62.26 
					44.425,65.359 45.225,68.369 46.515,71.199 48.285,73.76 50.465,75.989 46.785,80.27 43.925,77.35 41.605,73.989 39.905,70.27 
					38.865,66.329 38.505,62.26 38.865,58.189 39.905,54.24 41.605,50.52 43.925,47.16 				"/>
				<polygon fill="#FBD30B" points="39.425,35.669 43.105,39.959 39.565,43.569 36.705,47.729 34.585,52.33 33.295,57.22 
					32.865,62.26 33.295,67.29 34.585,72.18 36.705,76.779 39.565,80.939 43.105,84.56 39.425,88.84 35.205,84.529 31.795,79.569 
					29.275,74.09 27.735,68.26 27.215,62.26 27.735,56.25 29.275,50.419 31.795,44.939 35.205,39.979 				"/>
				<polygon fill="#FBD30B" points="32.065,27.1 35.745,31.39 30.845,36.39 26.885,42.149 23.955,48.51 22.165,55.28 21.565,62.26 
					22.165,69.229 23.955,76 26.885,82.359 30.845,88.119 35.745,93.119 32.065,97.409 26.495,91.71 21.975,85.149 18.645,77.899 
					16.605,70.199 15.925,62.26 16.605,54.31 18.645,46.609 21.975,39.359 26.495,32.8 				"/>
			</g>
			<g>
			</g>
		</g>
	</g>
</g>
</svg>
