<?xml version="1.0" encoding="utf-8"?>
<!-- Generator: Adobe Illustrator 14.0.0, SVG Export Plug-In . SVG Version: 6.00 Build 43363)  -->
<!DOCTYPE svg PUBLIC "-//W3C//DTD SVG 1.1//EN" "http://www.w3.org/Graphics/SVG/1.1/DTD/svg11.dtd">
<svg version="1.1" xmlns="http://www.w3.org/2000/svg" xmlns:xlink="http://www.w3.org/1999/xlink" x="0px" y="0px"
	 width="124.51px" height="124.51px" viewBox="0 0 124.51 124.51" enable-background="new 0 0 124.51 124.51" xml:space="preserve">
<g id="output-line-boundary">
</g>
<g id="output-line-logo">
	<g id="LWPOLYLINE_1_">
		<polyline fill="#FBD30B" points="62.255,23.867 74.706,31.055 74.706,45.433 62.255,52.621 49.804,45.433 49.804,31.055 
			62.255,23.867 		"/>
	</g>
	<g id="LWPOLYLINE_2_">
		<polyline fill="#FBD30B" points="34.529,23.867 46.98,31.055 46.98,45.433 34.529,52.621 22.078,45.433 22.078,31.055 
			34.529,23.867 		"/>
	</g>
	<g id="LWPOLYLINE_3_">
		<polyline fill="#FBD30B" points="89.981,23.867 102.431,31.055 102.431,45.433 89.981,52.621 77.53,45.433 77.53,31.055 
			89.981,23.867 		"/>
	</g>
	<g id="LWPOLYLINE_4_">
		<polyline fill="#FBD30B" points="76.118,47.878 88.569,55.066 88.569,69.443 76.118,76.632 63.667,69.443 63.667,55.066 
			76.118,47.878 		"/>
	</g>
	<g id="LWPOLYLINE_5_">
		<polyline fill="#FBD30B" points="48.392,47.878 60.843,55.066 60.843,69.443 48.392,76.632 35.941,69.443 35.941,55.066 
			48.392,47.878 		"/>
	</g>
	<g id="LWPOLYLINE_6_">
		<polyline fill="#FBD30B" points="89.981,71.889 102.431,79.077 102.431,93.454 89.981,100.644 77.53,93.454 77.53,79.077 
			89.981,71.889 		"/>
	</g>
	<g id="LWPOLYLINE_7_">
		<polyline fill="#FBD30B" points="62.255,71.889 74.706,79.077 74.706,93.454 62.255,100.644 49.804,93.454 49.804,79.077 
			62.255,71.889 		"/>
	</g>
	<g id="LWPOLYLINE_8_">
		<polyline fill="#FBD30B" points="34.529,71.889 46.98,79.077 46.98,93.454 34.529,100.644 22.078,93.454 22.078,79.077 
			34.529,71.889 		"/>
	</g>
</g>
</svg>
